<svg width="197" height="79" viewBox="0 0 197 79" fill="none" xmlns="http://www.w3.org/2000/svg">
<g clip-path="url(#clip0_3_315)">
<path d="M18.77 39.82L7.73999 58.56H26.13L27.8 55.4H13.85L20.73 43.28" fill="#006098"/>
<path d="M12.95 28.81L9.28 22.52H16.62L18.66 18.94H2.75L10.86 32.5" fill="#006098"/>
<path d="M54.7 22.56L41.64 -0.200012L20.75 35.73H25.16L32.62 22.56H54.71H54.7ZM41.64 7.03999L48.31 18.98H34.73L41.64 7.03999Z" fill="#006098"/>
<path d="M44 44.21C44 48.51 41.93 50.61 37.73 50.61C36.34 50.61 35.18 50.33 34.6 50V46.68C35.18 46.99 36.18 47.26 37.18 47.26C38.96 47.26 39.93 46.34 39.93 44.59V28.08H44V44.22V44.21Z" fill="#006098"/>
<path d="M48.21 50.04V29.24H61.69V32.3H51.96V38.02H60.2V41H51.96V46.98H62.13V50.04H48.21Z" fill="#006098"/>
<path d="M68.05 29.2L71.07 37.06C71.81 39 72.47 40.87 72.92 42.29C73.35 41.16 74.03 39.46 74.74 37.75L75.99 34.72L78.21 29.4H78.32C80.2 33.82 82.45 39.02 83.62 42.28C84.59 39.51 86.98 33.24 88.49 29.19H92.45L83.7 50.31H83.59L79.37 40.05C79 39.13 78.57 38.14 78.26 37.25L77.18 40.05L72.93 50.31H72.82L64.1 29.19H68.03L68.05 29.2Z" fill="#006098"/>
<path d="M95.64 50.04V29.24H99.28V50.04H95.64Z" fill="#006098"/>
<path d="M103.3 49.19V45.64C104.77 46.39 106.77 47.08 108.85 47.14C109.6 47.14 110.32 47.08 110.93 46.91C112.4 46.56 113.3 45.81 113.3 44.69C113.3 43.04 112.12 42.15 108.94 41.02C105.13 39.66 103.1 38.04 103.1 34.66C103.1 31.02 106.13 28.82 110.35 28.82C112.43 28.82 114.42 29.34 115.67 29.86V33.27C114.49 32.61 112.49 32.03 110.61 32.03C108.24 32.03 106.65 33.01 106.65 34.6C106.65 36.07 107.75 37.06 110.93 38.21C114.74 39.63 116.82 41.24 116.82 44.54C116.82 48.18 114.05 50.38 109.4 50.38C107 50.38 104.75 49.8 103.3 49.2V49.19Z" fill="#006098"/>
<path d="M133.71 50.04V41.03H124.29V50.04H120.65V29.24H124.29V37.99H133.71V29.24H137.35V50.04H133.71Z" fill="#006098"/>
<path d="M60.9 10.47L60.07 9.64998V22.6H56.5V1.22998H56.56L66.45 12.1L76.34 1.22998H76.4V22.59H72.86V9.63998L72 10.46C70.17 12.59 68.31 14.7 66.45 16.8L60.9 10.46V10.47Z" fill="#006098"/>
<path d="M80.8199 22.6V1.54999H94.1899V4.64999H84.5399V10.44H92.7199V13.45H84.5399V19.5H94.6299V22.6H80.8199Z" fill="#006098"/>
<path d="M105.89 1.54999C110.99 1.54999 114.21 3.94999 114.21 8.23999C114.21 11.34 112.21 13.38 109.77 14.17L114.68 22.59H110.46L106.14 14.79H102.17V22.59H98.29V1.54999H105.89ZM102.16 4.64999V11.81H106.1C108.63 11.81 110.26 10.55 110.26 8.23999C110.26 5.92999 108.57 4.64999 105.91 4.64999H102.16Z" fill="#006098"/>
<path d="M117.9 22.6V1.54999H121.62V22.59H117.9V22.6Z" fill="#006098"/>
<path d="M142.84 6.07998C141.49 5.40998 139.35 4.55998 136.64 4.55998C131.97 4.55998 128.84 7.82998 128.84 12.07C128.84 16.31 131.97 19.58 136.55 19.58C139.44 19.58 141.64 18.76 142.99 18.09V21.51C142.09 22.01 139.62 22.97 136.4 22.97C129.87 22.97 125.02 18.29 125.02 12.07C125.02 5.84998 129.87 1.16998 136.49 1.16998C139.62 1.16998 141.94 2.15998 142.84 2.65998V6.07998Z" fill="#006098"/>
<path d="M154.93 1.22998H155.05L165.12 22.59H161.22L159.33 18.41H150.65L148.76 22.59H144.86L154.93 1.22998ZM158.12 15.67C156.91 12.98 155.91 10.61 155.02 8.21998C154.1 10.41 153.01 13.1 151.86 15.67H158.12Z" fill="#006098"/>
<path d="M185.16 22.92L172.73 10.32C172.41 10.03 172.05 9.67998 171.7 9.37998V22.59H168.04V1.22998H168.16L180.56 13.8L181.59 14.79V1.54998H185.25V22.91H185.16V22.92Z" fill="#006098"/>
<path d="M49.6001 69.61C49.6001 74.64 46.2801 77.8 40.6901 77.8C35.1301 77.8 31.8101 74.65 31.8101 69.61V55.57H35.6501V69.28C35.6501 72.43 37.5201 74.28 40.6901 74.28C43.8901 74.28 45.7301 72.43 45.7301 69.28V55.57H49.6001V69.61Z" fill="#006098"/>
<path d="M69.6 77.78L57.3 65.18C56.98 64.89 56.63 64.54 56.28 64.24V77.45H52.65V56.09H52.77L65.04 68.66L66.06 69.65V56.41H69.69V77.77H69.6V77.78Z" fill="#006098"/>
<path d="M73.47 77.46V56.42H77.16V77.46H73.47Z" fill="#006098"/>
<path d="M89.46 77.79H89.34L79.29 56.42H83.26L86.09 62.73C87.35 65.59 88.4 67.9 89.36 70.39C90.27 68.17 91.49 65.42 92.69 62.73L95.5 56.42H99.47L89.44 77.78L89.46 77.79Z" fill="#006098"/>
<path d="M101.75 77.47V56.43H114.99V59.53H105.43V65.32H113.52V68.33H105.42V74.38H115.41V77.48H101.73L101.75 77.47Z" fill="#006098"/>
<path d="M125.64 56.43C130.4 56.43 133.41 58.83 133.41 63.12C133.41 66.22 131.54 68.26 129.26 69.05L133.85 77.47H129.9L125.87 69.67H122.16V77.47H118.54V56.43H125.64ZM122.16 59.52V66.68H125.84C128.21 66.68 129.73 65.42 129.73 63.12C129.73 60.78 128.15 59.53 125.67 59.52H122.16Z" fill="#006098"/>
<path d="M136.58 76.65V73.06C138.07 73.82 140.09 74.52 142.19 74.58C142.95 74.58 143.68 74.52 144.29 74.35C145.78 74 146.69 73.24 146.69 72.1C146.69 70.43 145.49 69.53 142.28 68.39C138.42 67.02 136.38 65.38 136.38 61.96C136.38 58.28 139.45 56.06 143.72 56.06C145.82 56.06 147.84 56.59 149.1 57.11V60.56C147.9 59.89 145.88 59.3 143.99 59.3C141.59 59.3 139.99 60.29 139.99 61.9C139.99 63.39 141.1 64.38 144.32 65.55C148.18 66.98 150.28 68.62 150.28 71.95C150.28 75.63 147.47 77.85 142.77 77.85C140.34 77.85 138.07 77.27 136.6 76.65H136.58Z" fill="#006098"/>
<path d="M153.14 77.47V56.43H156.83V77.47H153.14Z" fill="#006098"/>
<path d="M169.25 59.53V77.47H165.57V59.53H159.44V56.43H175.4V59.53H169.26H169.25Z" fill="#006098"/>
<path d="M181.22 56.43L186.54 65.72L191.89 56.43H196.01L188.38 69.23V77.47H184.7V69.23L177.1 56.43H181.22Z" fill="#006098"/>
<path d="M0 58.35L33.8 -0.100006H37.7L3.9 58.35H0Z" fill="#006098"/>
</g>
<defs>
<clipPath id="clip0_3_315">
<rect width="196.01" height="78.05" fill="white"/>
</clipPath>
</defs>
</svg>
