<?xml version="1.0" encoding="UTF-8" standalone="no"?>
<svg
   id="Layer_1"
   viewBox="0 0 126 59"
   version="1.1"
   sodipodi:docname="Hillel logo.svg"
   width="126"
   height="59"
   inkscape:version="1.2 (dc2aedaf03, 2022-05-15)"
   xmlns:inkscape="http://www.inkscape.org/namespaces/inkscape"
   xmlns:sodipodi="http://sodipodi.sourceforge.net/DTD/sodipodi-0.dtd"
   xmlns="http://www.w3.org/2000/svg"
   xmlns:svg="http://www.w3.org/2000/svg">
  <sodipodi:namedview
     id="namedview87"
     pagecolor="#ffffff"
     bordercolor="#000000"
     borderopacity="0.25"
     inkscape:showpageshadow="2"
     inkscape:pageopacity="0.0"
     inkscape:pagecheckerboard="0"
     inkscape:deskcolor="#d1d1d1"
     showgrid="false"
     inkscape:zoom="6.3377719"
     inkscape:cx="54.27775"
     inkscape:cy="14.04279"
     inkscape:window-width="1920"
     inkscape:window-height="1009"
     inkscape:window-x="-8"
     inkscape:window-y="-8"
     inkscape:window-maximized="1"
     inkscape:current-layer="Layer_1" />
  <defs
     id="defs4">
    <style
       id="style2">.cls-1{fill:#3366ff;}</style>
  </defs>
  <g
     id="g38"
     transform="translate(-0.915,-2.0549999)" />
  <g
     id="g82"
     transform="translate(-0.915,-2.0549999)">
    <polygon
       class="cls-1"
       points="11.66,40.76 1.01,40.76 1.01,2.34 11.66,2.34 11.66,16.72 25.33,16.72 25.33,2.34 35.98,2.34 35.98,40.77 25.33,40.77 25.33,26.17 11.66,26.17 "
       id="polygon40" />
    <rect
       class="cls-1"
       x="40.43"
       y="16.719999"
       width="10.43"
       height="24.040001"
       id="rect42" />
    <rect
       class="cls-1"
       x="55.23"
       y="2.3399999"
       width="10.43"
       height="38.43"
       id="rect44" />
    <rect
       class="cls-1"
       x="70.010002"
       y="2.3399999"
       width="10.43"
       height="38.419998"
       id="rect46" />
    <path
       class="cls-1"
       d="m 103.56,23.48 c -0.38,-3.29 -2.3,-5.38 -5.16,-5.38 -2.86,0 -4.61,2.14 -5.16,5.38 z m -20.2,2.57 v -0.11 c 0,-8.67 6.21,-15.53 14.99,-15.53 10.27,0 14.99,7.52 14.99,16.25 0,0.66 0,1.42 -0.06,2.13 H 93.41 c 0.82,3.24 3.19,4.89 6.42,4.89 2.47,0 4.45,-0.94 6.59,-3.02 l 5.76,4.77 c -2.85,3.62 -6.97,6.04 -12.9,6.04 -9.34,0 -15.92,-6.21 -15.92,-15.43"
       id="path48" />
    <rect
       class="cls-1"
       x="116.36"
       y="2.3399999"
       width="10.43"
       height="38.419998"
       id="rect50" />
    <path
       class="cls-1"
       d="m 50.85,8.27 c 0,2.88 -2.33,5.21 -5.21,5.21 -2.88,0 -5.21,-2.34 -5.21,-5.21 0,-2.87 2.33,-5.22 5.21,-5.22 2.88,0 5.21,2.33 5.21,5.22"
       id="path52" />
    <g
       id="g80">
      <path
         class="cls-1"
         d="M 4.26,47.36 V 60.55 H 1.22 V 47.36 Z"
         id="path54" />
      <path
         class="cls-1"
         d="m 7.84,54.03 c 0,-1.19 -0.04,-2.21 -0.08,-3.05 h 2.62 l 0.14,1.31 h 0.06 c 0.4,-0.61 1.39,-1.53 3,-1.53 1.99,0 3.48,1.29 3.48,4.11 v 5.68 h -3.02 v -5.3 c 0,-1.23 -0.44,-2.08 -1.53,-2.08 -0.83,0 -1.33,0.57 -1.53,1.12 -0.08,0.18 -0.12,0.47 -0.12,0.74 v 5.52 H 7.84 Z"
         id="path56" />
      <path
         class="cls-1"
         d="m 23.73,48.24 v 2.74 h 2.16 v 2.19 h -2.16 v 3.47 c 0,1.16 0.28,1.68 1.19,1.68 0.38,0 0.67,-0.04 0.89,-0.08 l 0.02,2.25 c -0.4,0.16 -1.11,0.25 -1.97,0.25 -0.97,0 -1.79,-0.33 -2.26,-0.82 -0.56,-0.57 -0.83,-1.49 -0.83,-2.84 v -3.92 h -1.29 v -2.19 h 1.29 v -2.08 l 2.96,-0.66 z"
         id="path58" />
      <path
         class="cls-1"
         d="m 30.86,56.72 c 0.1,1.23 1.33,1.82 2.74,1.82 1.03,0 1.87,-0.14 2.68,-0.39 l 0.4,2.02 c -0.99,0.39 -2.2,0.59 -3.51,0.59 -3.3,0 -5.18,-1.88 -5.18,-4.87 0,-2.43 1.53,-5.11 4.9,-5.11 3.14,0 4.33,2.41 4.33,4.78 0,0.51 -0.06,0.96 -0.1,1.18 h -6.25 z m 3.55,-2.04 c 0,-0.72 -0.32,-1.94 -1.71,-1.94 -1.27,0 -1.79,1.14 -1.87,1.94 h 3.57 z"
         id="path60" />
      <path
         class="cls-1"
         d="m 40.02,54.13 c 0,-1.41 -0.04,-2.33 -0.08,-3.15 h 2.6 l 0.1,1.76 h 0.08 c 0.5,-1.39 1.69,-1.98 2.62,-1.98 0.28,0 0.42,0 0.64,0.04 v 2.8 c -0.22,-0.04 -0.48,-0.08 -0.81,-0.08 -1.11,0 -1.87,0.59 -2.06,1.51 -0.04,0.2 -0.06,0.43 -0.06,0.67 v 4.85 h -3.02 v -6.42 z"
         id="path62" />
      <path
         class="cls-1"
         d="m 48.56,54.03 c 0,-1.19 -0.04,-2.21 -0.08,-3.05 h 2.62 l 0.14,1.31 h 0.06 c 0.4,-0.61 1.39,-1.53 3,-1.53 1.99,0 3.47,1.29 3.47,4.11 v 5.68 h -3.02 v -5.3 c 0,-1.23 -0.44,-2.08 -1.53,-2.08 -0.83,0 -1.33,0.57 -1.53,1.12 -0.08,0.18 -0.12,0.47 -0.12,0.74 v 5.52 h -3.02 v -6.52 z"
         id="path64" />
      <path
         class="cls-1"
         d="m 66.71,60.55 -0.18,-0.96 h -0.06 c -0.63,0.76 -1.63,1.18 -2.78,1.18 -1.97,0 -3.14,-1.41 -3.14,-2.94 0,-2.49 2.26,-3.68 5.7,-3.66 v -0.14 c 0,-0.51 -0.28,-1.23 -1.77,-1.23 -0.99,0 -2.04,0.33 -2.68,0.72 L 61.24,51.6 c 0.68,-0.37 2.01,-0.84 3.77,-0.84 3.24,0 4.27,1.88 4.27,4.13 v 3.33 c 0,0.92 0.04,1.8 0.14,2.33 H 66.7 Z m -0.36,-4.52 c -1.59,-0.02 -2.82,0.35 -2.82,1.51 0,0.76 0.52,1.14 1.19,1.14 0.76,0 1.37,-0.49 1.57,-1.1 0.04,-0.16 0.06,-0.33 0.06,-0.51 z"
         id="path66" />
      <path
         class="cls-1"
         d="m 75.89,48.24 v 2.74 h 2.17 v 2.19 h -2.17 v 3.47 c 0,1.16 0.28,1.68 1.19,1.68 0.38,0 0.68,-0.04 0.89,-0.08 l 0.02,2.25 c -0.4,0.16 -1.11,0.25 -1.97,0.25 -0.97,0 -1.79,-0.33 -2.26,-0.82 -0.55,-0.57 -0.83,-1.49 -0.83,-2.84 v -3.92 h -1.29 v -2.19 h 1.29 v -2.08 l 2.96,-0.66 z"
         id="path68" />
      <path
         class="cls-1"
         d="m 83.92,48.32 c 0,0.82 -0.64,1.49 -1.63,1.49 -0.99,0 -1.59,-0.67 -1.57,-1.49 -0.02,-0.86 0.61,-1.51 1.59,-1.51 0.98,0 1.59,0.65 1.61,1.51 z M 80.8,60.55 v -9.57 h 3.02 v 9.57 z"
         id="path70" />
      <path
         class="cls-1"
         d="m 96.82,55.66 c 0,3.5 -2.52,5.11 -5.12,5.11 -2.84,0 -5.02,-1.84 -5.02,-4.93 0,-3.09 2.06,-5.07 5.18,-5.07 3.12,0 4.96,2.02 4.96,4.89 z m -7.03,0.1 c 0,1.64 0.69,2.88 1.98,2.88 1.17,0 1.93,-1.15 1.93,-2.88 0,-1.43 -0.55,-2.88 -1.93,-2.88 -1.45,0 -1.98,1.47 -1.98,2.88 z"
         id="path72" />
      <path
         class="cls-1"
         d="m 99.69,54.03 c 0,-1.19 -0.04,-2.21 -0.08,-3.05 h 2.62 l 0.14,1.31 h 0.06 c 0.4,-0.61 1.39,-1.53 3,-1.53 1.99,0 3.47,1.29 3.47,4.11 v 5.68 h -3.02 v -5.3 c 0,-1.23 -0.44,-2.08 -1.53,-2.08 -0.83,0 -1.33,0.57 -1.53,1.12 -0.08,0.18 -0.12,0.47 -0.12,0.74 v 5.52 h -3.02 v -6.52 z"
         id="path74" />
      <path
         class="cls-1"
         d="m 117.84,60.55 -0.18,-0.96 h -0.06 c -0.64,0.76 -1.63,1.18 -2.78,1.18 -1.97,0 -3.14,-1.41 -3.14,-2.94 0,-2.49 2.26,-3.68 5.7,-3.66 v -0.14 c 0,-0.51 -0.28,-1.23 -1.77,-1.23 -0.99,0 -2.04,0.33 -2.68,0.72 l -0.56,-1.92 c 0.67,-0.37 2,-0.84 3.77,-0.84 3.24,0 4.27,1.88 4.27,4.13 v 3.33 c 0,0.92 0.04,1.8 0.14,2.33 h -2.72 z m -0.36,-4.52 c -1.59,-0.02 -2.82,0.35 -2.82,1.51 0,0.76 0.52,1.14 1.19,1.14 0.76,0 1.37,-0.49 1.57,-1.1 0.04,-0.16 0.06,-0.33 0.06,-0.51 z"
         id="path76" />
      <path
         class="cls-1"
         d="m 123.8,46.65 h 3.02 v 13.9 h -3.02 z"
         id="path78" />
    </g>
  </g>
</svg>
