<?xml version="1.0" encoding="UTF-8"?><svg id="_Слой_1" xmlns="http://www.w3.org/2000/svg" viewBox="0 0 277 80" width="277" height="80"><path d="M98.1,14.7c0-1.5-.6-2.9-2.3-2.9-2.7,0-3.1,3.6-3.1,5.6,0,2.7.5,6.6,4,6.6,1.4,0,2.4-.5,3.5-1.4v2c-1.2.7-2.5.9-3.9.9-4.5,0-6.1-3.8-6.1-7.8,0-3.7,1.4-7.2,5.7-7.2,2.7,0,4.8,1.3,4.8,4.2h-2.6M107.5,25.3v-1.4h0c-.6,1-1.7,1.6-2.8,1.6-1.4,0-2.7-1-2.7-2.5,0-2.8,3.5-3.2,5.6-3.3v-.9c0-1,0-2.9-1.4-2.9-1.3,0-1.6,1.1-1.6,2.2h-2.2c.2-2.3,1.6-3.1,3.8-3.1,2.8,0,3.5,1.2,3.5,3.8v6.4l-2.2.1h0ZM107.5,20.6c-1.3.1-3.3.4-3.3,2.1,0,.7.4,1.5,1.2,1.5.3,0,.6-.1.8-.2.8-.4,1.3-1.3,1.3-2.2,0,0,0-1.2,0-1.2ZM118.6,25.3v-4.6h-3.8v4.6h-2.1v-10h2.1v4.2h3.8v-4.2h2.1v10h-2.1M123.8,15.3h2.1v4.3c1.2-1.4,2.4-2.8,3.6-4.3h2.1l-3.9,4.5c1.3.2,2.3.5,3,2.5l1,2.9h-2.3l-.8-2.2c-.6-1.7-1.1-2.1-2.4-2.1h-.3v4.4h-2.1v-10M137.2,16.5v8.8h-2.1v-8.8h-2.7v-1.2h7.6v1.2h-2.8M141.2,19h5.1v1.5h-5.1v-1.5ZM156.5,25.3v-13h-5.1v13h-2.3v-14.5h9.7v14.5h-2.3M163.4,19.2c0,2.4,1.1,5.2,3.9,5.2.7,0,1.3-.1,1.9-.4v1c-1,.4-1.8.6-2.9.6-3.5,0-5-2.4-5-5.7,0-2.9,1.2-4.8,4.3-4.8,2.7,0,3.9,1.5,3.9,4.1h-6.1,0ZM165.5,16c-1.3,0-1.9,1.1-2,2.2h3.9c0-1.2-.6-2.2-1.9-2.2h0ZM175.2,16.5v8.8h-2.1v-8.8h-2.7v-1.2h7.6v1.2h-2.8M180.8,19.2c0,2.4,1.1,5.2,3.9,5.2.7,0,1.3-.1,1.9-.4v1c-1,.4-1.8.6-2.9.6-3.5,0-5-2.4-5-5.7,0-2.9,1.2-4.8,4.3-4.8,2.7,0,3.9,1.5,3.9,4.1h-6.1,0ZM182.8,16c-1.3,0-1.9,1.1-2,2.2h3.9c0-1.2-.5-2.2-1.9-2.2ZM193.9,25.5c-1.2,0-2-.5-2.6-1.6h0v5.9h-2.1v-14.5h2.1v1.7h0c.5-1.1,1.3-1.9,2.6-1.9,3.1,0,3.8,2.7,3.8,5.2s-.8,5.2-3.8,5.2h0ZM193.3,16.4c-1.9,0-2,2.5-2,3.9s0,4,2,4c1.8,0,2-2.7,2-4,.1-1.3-.1-3.9-2-3.9ZM207.5,12.2l-3.4,1.3c-1.9.7-2.7,1.7-3.1,3.4h.1c.6-1.2,1.7-1.8,3.1-1.8,3,0,4,2.2,4,5.1,0,3.2-1.3,5.4-4.4,5.4-3.3,0-4.4-2.2-4.4-5.7,0-3.9.9-6.7,4.2-8.1,1-.4,2-.9,3.1-1.3l.8,1.7h0ZM203.8,24.6c1.9,0,2.1-2.4,2.1-3.9v-.8c0-1.5-.1-3.8-2.1-3.8-1.8,0-2.2,2.4-2.2,3.8v.8c.1,1.5.3,3.9,2.2,3.9ZM213.2,29.8h-1.7l1.5-4.4-3.8-10.1h2.2l2.6,7.1h0l2.4-7.1h2l-5.2,14.5M224.7,25.5c-1.2,0-2-.5-2.6-1.6h0v5.9h-2.1v-14.5h2.1v1.7h0c.5-1.1,1.3-1.9,2.6-1.9,3.1,0,3.8,2.7,3.8,5.2s-.8,5.2-3.8,5.2h0ZM224.2,16.4c-1.9,0-2,2.5-2,3.9s0,4,2,4c1.8,0,2-2.7,2-4s-.2-3.9-2-3.9ZM236.6,15.3v1.2h-3.6v8.8h-2.1v-10h5.7M242.8,18.6c0-1-.1-2.6-1.5-2.6-1.5,0-1.9,2.1-1.9,3.2,0,2.2.9,5.2,3.6,5.2.6,0,1.2-.1,1.8-.4v1c-.9.3-1.8.5-2.7.5-3.5,0-5-2.3-5-5.6,0-2.8,1.2-4.8,4.2-4.8,2.4,0,3.6,1.1,3.6,3.5h-2.1M246.8,15.3h2.1v4.3c1.2-1.4,2.4-2.8,3.6-4.3h2.1l-3.9,4.5c1.3.2,2.3.5,3,2.5l1,2.9h-2.3l-.8-2.2c-.6-1.7-1.1-2.1-2.4-2.1h-.2v4.4h-2.1l-.1-10M256.6,25.3v-10h2v7.5l4.2-7.5h2v10h-2v-7.3l-4.2,7.4h-2M267.9,25.3v-10h2v7.5l4.2-7.5h2v10h-2v-7.3l-4.2,7.4h-2v-.1ZM275.1,10.6c-.1,1.7-1.1,3-2.9,3s-3-1.2-3-3h1.2c.2.9.8,1.4,1.7,1.4,1,0,1.5-.5,1.8-1.4h1.2,0ZM96.5,37.6v1.2h-3.5v8.8h-2.1v-10h5.6M101.5,47.8c-3.3,0-4.4-2.3-4.4-5.2s1.2-5.2,4.4-5.2,4.4,2.2,4.4,5.2-1.1,5.2-4.4,5.2ZM101.5,38.2c-2,0-2.1,2.9-2.1,4.3s.1,4.3,2.1,4.3,2.1-2.9,2.1-4.3,0-4.3-2.1-4.3ZM113.3,40.8c0-1-.1-2.6-1.5-2.6-1.5,0-1.8,2.1-1.8,3.2,0,2.2.9,5.2,3.6,5.2.6,0,1.2-.1,1.8-.4v1c-.9.3-1.8.5-2.7.5-3.5,0-5-2.3-5-5.6,0-2.8,1.2-4.8,4.2-4.8,2.4,0,3.6,1.1,3.6,3.5h-2.2M119.9,52h-1.7l1.5-4.4-3.8-10.1h2.2l2.6,7.1h0l2.4-7.1h2l-5.2,14.5M127.3,47.6c-.1.8-.1,1.6-.2,2.4h-1.7v-3.6h1c.8-1.4,1.1-3.8,1.1-6.5v-2.3h6.9v8.8h1.4l-.3,3.6h-1.7v-2.4h-6.5ZM129.6,38.7v1.1c0,2.3-.3,4.8-1.2,6.5h3.9v-7.6h-2.7ZM142.7,47.6v-1.4h0c-.6,1-1.7,1.6-2.8,1.6-1.4,0-2.7-1-2.7-2.5,0-2.8,3.5-3.2,5.6-3.3v-.9c0-1,0-2.9-1.4-2.9-1.3,0-1.6,1.1-1.6,2.2h-2.2c.2-2.3,1.6-3.1,3.9-3.1,2.8,0,3.5,1.2,3.5,3.8v6.4h-2.3v.1ZM142.7,42.9c-1.3.1-3.3.4-3.3,2.1,0,.7.4,1.5,1.2,1.5.3,0,.6-.1.8-.2.8-.4,1.3-1.3,1.3-2.2,0,0,0-1.2,0-1.2ZM152.7,47.8c-1.2,0-2-.5-2.6-1.6h0v5.8h-2.1v-14.4h2.1v1.6h0c.5-1.1,1.3-1.9,2.6-1.9,3.1,0,3.8,2.7,3.8,5.2s-.8,5.3-3.8,5.3ZM152.1,38.7c-1.9,0-2,2.5-2,3.9s0,4,2,4c1.8,0,2-2.7,2-4,0-1.4-.2-3.9-2-3.9ZM163.7,40.8c0-1-.1-2.6-1.5-2.6-1.5,0-1.9,2.1-1.9,3.2,0,2.2.9,5.2,3.6,5.2.6,0,1.2-.1,1.8-.4v1c-.9.3-1.8.5-2.7.5-3.5,0-5-2.3-5-5.6,0-2.8,1.2-4.8,4.2-4.8,2.4,0,3.6,1.1,3.6,3.5h-2.1M171.4,38.7v8.8h-2.1v-8.8h-2.7v-1.2h7.6v1.2h-2.8M179.5,47.6h-3.6v-10h3.5c1.9,0,3.8.4,3.8,2.4,0,1.1-.7,2-2.1,2.4h0c1.7.2,2.6,1,2.6,2.5,0,2.2-1.9,2.7-4.2,2.7ZM178.9,38.6h-.9v3.2h.8c1.2,0,2.1-.3,2.1-1.6.1-1.2-.7-1.6-2-1.6h0ZM178.9,42.9h-.9v3.5h.9c1.5,0,2.6-.3,2.6-1.8,0-1.4-1.1-1.7-2.6-1.7h0ZM187.4,41.4c0,2.4,1.1,5.2,3.9,5.2.7,0,1.3-.1,1.9-.4v1c-1,.4-1.8.6-2.9.6-3.5,0-5-2.4-5-5.7,0-2.9,1.2-4.8,4.3-4.8,2.7,0,3.9,1.5,3.9,4.1h-6.1,0ZM189.4,38.2c-1.3,0-1.9,1.1-2,2.2h3.9c0-1.1-.6-2.2-1.9-2.2h0ZM201.6,47.6v-4.6h-3.8v4.6h-2.1v-10h2.1v4.2h3.8v-4.2h2.1v10h-2.1M212.7,47.6v-4.6h-3.7v4.6h-2.1v-10h2.1v4.2h3.8v-4.2h2.1v10h-2.2M220.1,37.6v4.2h1.6c2.1,0,3.8.6,3.8,2.8,0,2.4-2,3-4.1,3h-3.4v-10h2.1,0ZM220.5,42.9h-.4v3.6h1.1c1.2-.1,2.1-.5,2.1-1.8-.1-1.6-1.2-1.8-2.8-1.8h0ZM226.6,37.6h2.1v10h-2.1v-10h0ZM231.9,47.6v-10h2v7.5l4.2-7.5h2v10h-2v-7.4l-4.2,7.3-2,.1h0ZM239.1,32.8c-.1,1.7-1.1,3-2.9,3s-3-1.2-3-3h1.2c.2.9.8,1.4,1.7,1.4,1,0,1.5-.5,1.8-1.5l1.2.1h0ZM93.4,74.3h-1.7l1.5-4.4-3.8-10.1h2.2l2.6,7.1h0l2.4-7.1h2l-5.2,14.5M106.1,69.8v-4.6h-3.8v4.6h-2.1v-10h2.1v4.2h3.8v-4.2h2.1v10h-2.1M111.3,69.8v-10h2v7.5l4.2-7.5h2v10h-2v-7.3l-4.2,7.3h-2M126.2,69.8h-3.6v-10h3.5c1.9,0,3.8.4,3.8,2.4,0,1.1-.7,2-2.1,2.4h0c1.7.2,2.6,1,2.6,2.5,0,2.2-1.9,2.7-4.2,2.7h0ZM125.6,60.9h-.9v3.1h.8c1.2,0,2.1-.3,2.1-1.6.1-1.2-.6-1.5-2-1.5ZM125.7,65.1h-.9v3.6h.9c1.5,0,2.6-.3,2.6-1.8-.1-1.5-1.2-1.8-2.6-1.8ZM134.1,63.7c0,2.4,1.1,5.3,3.9,5.3.7,0,1.3-.1,1.9-.4v1c-1,.4-1.8.6-2.9.6-3.5,0-5-2.4-5-5.7,0-2.9,1.2-4.8,4.3-4.8,2.7,0,3.9,1.5,3.9,4.1l-6.1-.1h0ZM136.1,60.4c-1.3,0-1.9,1.1-2,2.2h3.9c0-1.1-.5-2.2-1.9-2.2ZM147.2,70c-1.2,0-2-.5-2.6-1.6h0v5.9h-2.1v-14.5h2.1v1.6h0c.5-1.1,1.3-1.9,2.6-1.9,3.1,0,3.8,2.7,3.8,5.2s-.8,5.3-3.8,5.3h0ZM146.6,60.9c-1.9,0-2,2.5-2,3.9s0,4,2,4c1.8,0,2-2.7,2-4s-.1-3.9-2-3.9h0ZM158.2,63c0-1-.1-2.6-1.5-2.6-1.5,0-1.9,2.1-1.9,3.2,0,2.2.9,5.2,3.6,5.2.6,0,1.2-.1,1.8-.4v1c-.9.3-1.8.5-2.7.5-3.5,0-5-2.3-5-5.6,0-2.8,1.2-4.8,4.2-4.8,2.4,0,3.6,1.1,3.6,3.5h-2.1M162.3,69.8v-10h2v7.5l4.2-7.5h2v10h-2v-7.3l-4.2,7.3h-2M177,61v8.8h-2.1v-8.8h-2.7v-1.2h7.6v1.2h-2.8M182.6,63.7c0,2.4,1.1,5.3,3.9,5.3.7,0,1.3-.1,1.9-.4v1c-1,.4-1.8.6-2.9.6-3.5,0-5-2.4-5-5.7,0-2.9,1.2-4.8,4.3-4.8,2.7,0,3.9,1.5,3.9,4.1l-6.1-.1h0ZM184.6,60.4c-1.3,0-1.9,1.1-2,2.2h3.9c0-1.1-.6-2.2-1.9-2.2ZM194.3,61v8.8h-2.1v-8.8h-2.7v-1.2h7.6v1.2h-2.8" style="fill:#fff; stroke-width:0px;"/><path d="M29.21,12.95c.02.06.05.11.07.16.41.87,1.15,1.7,1.15,1.7,0,0,0,0,.01,0h0s.11-.08.32-.2c.07-.04.16-.09.26-.14.24-.12.54-.25.92-.39.9-.32,2.09-.42,2.09-.42,0,0-1.11-1.55-1.32-3.79-.12-1.27-.07-1.93-.06-1.97-.08,0-.15-.01-.23-.01-.85,0-1.62.3-2.23.79-.02.01-.03.02-.05.04-.79.65-1.29,1.64-1.29,2.74,0,.31.04.6.12.89.06.18.14.41.22.61Z" style="fill:#fff; stroke-width:0px;"/><path d="M50.66,23.8c.36.58.35,1.3.35,1.3,0,0,.74.13,1.1.49,0,0,.06-.06.06-.07.49-.61,1.4-1.6,1.67-3.05.21-1.18.08-2.83-.17-3.35,0-.02-.02-.05-.03-.06.24-.27.63-.91,1.7-.91.4,0,.75.11,1.04.24.47.23.76.53.76.53,0,0-.93,1.66-1.42,2.44-.25.4-.43.72-.93,1.82-.42.92-.53,1.53-.46,2.19.06.55.35,1.61.48,2.67.24,2.04-.16,3.03-.16,3.03,0,0,.01,0,.02-.02,0,0,0,.02,0,.02,0,0,2.42-1.6,3.94-5.16,0,0-.01,0-.02,0,0,0,0,0,0,0-.28-.05-.51-.13-.71-.23-.2-.1-.38-.23-.57-.37-1.35-1.03-1.05-2.13-.61-2.65.13-.15.25-.29.39-.43.34-.36.71-.73,1.09-1.18.49-.57.66-1.14.73-1.64.02-.17.05-.35.05-.52,0-1.5-.73-2.52-1.65-3.03-.31-.17-.64-.29-.97-.34-1.04-.18-2.3.21-3.23.84-.35.24-.94.77-1.1,1.18-.2,1.01.1,1.27.41,2.31,0,.02.02.04.03.06.64,2.32.31,3.45-1.79,3.89Z" style="fill:#fff; stroke-width:0px;"/><path d="M40.29,21.73c.27.58.77,1.14.77,1.14,0,0,0,0,0,0,0,0,.07.07.07.07,0,0,.27-.24.99-.52.59-.23,1.35-.31,1.35-.31,0,0-.75-1.04-.89-2.53-.08-.87-.05-1.32-.04-1.32,0,0-.01,0-.02,0h0c-.38-.07-.77,0-1.13.17-.25.14-.47.29-.65.46-.32.29-.54.61-.62.95-.13.37-.18.77-.1,1.19,0,.04.14.47.25.71Z" style="fill:#fff; stroke-width:0px;"/><path d="M43.59,20.19c.32.9.86,1.65,1.27,1.81.06.03.12.04.18.04h0c.43-.05.99-.91,1.26-1.96.26-.98.08-1.81-.35-2.16-.1-.07-.21-.14-.32-.19-.02,0-.04-.01-.06-.02.21-.19.36-.46.36-.77,0-.48-.31-.87-.75-.99v-.42h.71v-.58h-.71v-.91h-.58v.91h-.72v.58h.72v.42c-.43.12-.74.51-.74.99,0,.3.13.58.35.77-.17.08-.33.18-.47.3-.4.38-.5,1.22-.16,2.18Z" style="fill:#fff; stroke-width:0px;"/><path d="M46.5,22.03s1.27,0,2.54.51c.02,0,.04.02.06.03.17-.22.42-.56.58-.91.11-.24.24-.67.25-.71.08-.42.03-.82-.1-1.19-.08-.34-.3-.66-.62-.95-.18-.16-.4-.32-.65-.46,0,0,0,0,0,0,0,0,0,0,0,0-.36-.17-.75-.24-1.13-.18,0,0,.04.46-.04,1.32-.14,1.5-.89,2.53-.89,2.53,0,0,.01,0,.02,0h0Z" style="fill:#fff; stroke-width:0px;"/><path d="M38.23,13.65s1.19.1,2.09.42c.38.13.69.27.92.39.1.05.18.1.26.14.22.12.32.2.32.2h0s.01,0,.01,0c0,0,.75-.84,1.15-1.7.02-.05.05-.1.07-.16.08-.2.16-.43.22-.61.07-.28.12-.58.12-.89,0-1.1-.5-2.09-1.29-2.74-.01-.01-.03-.02-.05-.04-.61-.49-1.39-.79-2.23-.79-.08,0-.15,0-.23.01.01.04.06.7-.06,1.97-.21,2.24-1.32,3.79-1.32,3.79Z" style="fill:#fff; stroke-width:0px;"/><path d="M39.02,17.09s.14.7.22,1.01c0,0,.09,0,.09,0,.53-.21,1.57-.53,1.57-.87v-1.11c0-.2-.2-.39-.56-.56-.73-.34-2.11-.58-3.68-.61h-.91c-1.62.01-3.07.26-3.82.61-.36.17-.57.36-.57.56v1.11c0,.35,1.05.66,1.58.87,0,0,.09,0,.09,0,.08-.31.23-1.01.23-1.01,0,0-.11-.05-.14-.09-.06-.14.05-.22.25-.33.2-.11.52-.17.79-.18.17.61.19,1.57.16,2.39-.07,1.65-.38,3.73-1.36,5.14.37.36.78.83,1.2,1.43,1.01-1.95,1.17-4.08,1.26-6.27.04-.97,0-2.1,0-2.87.09,0,.41-.04.72-.04s.62.04.72.04c0,.77-.04,1.9,0,2.87.09,2.23.25,4.4,1.31,6.37.39-.56.76-1.02,1.12-1.38.03-.03.05-.07.07-.1-1.01-1.41-1.33-3.52-1.4-5.19-.04-.82-.01-1.78.16-2.39.27.01.6.07.79.18.2.11.31.19.25.33-.02.05-.14.09-.14.09Z" style="fill:#fff; stroke-width:0px;"/><path d="M52.7,32.69s0,0-.01,0c-.02,0-.03,0-.05,0h-.03c-.06,0-.11.01-.17.02-.58.04-1.14,0-1.61-.19-.26-.09-.49-.24-.71-.39-.05-.04-.64-.56-.75-.66-.43-.4-1.24-.99-2.07-1.07-.94-.09-1.54.25-2.22.52-.06.03-.11.09-.12.16,0,.08.04.15.11.18.02.01.05.02.08.02.67.05,1.31.16,1.91.34.45.14.89.28,1.24.53.46.33.86.75,1.13.92.34.22.65.43,1.05.51.42.07.85.04,1.25-.06.02,0,.04-.01.05-.02.11-.03.21-.07.31-.11.14-.06.28-.12.41-.19,0,0,.01,0,.02,0,.08-.05.17-.09.25-.15,0,0,0,0,0,0,.05-.04.08-.1.07-.16,0-.08-.07-.15-.15-.16,0,0,0,0,0,0Z" style="fill:#fff; stroke-width:0px;"/><path d="M50.11,26.46c.04.13.18.28.34.37.5.29.68.72-.07.81-.55.06-1.12-.3-3.15.26-1.19.33-2.59,1.53-3.08,2.08-.15.17-.31.37-.45.58-.47.68-.47,1.59.04,2.25.3.39.64.64.74.71,1.78,1.21,3.45.21,3.64.02.15-.15.16-.2.13-.24,0,0,0,0-.01,0,0,0,0,0,0,0,0,0,0,0,0,0,0,0-.57.3-1.36.3-.45,0-.91-.08-1.29-.25-.28-.13-.92-.47-1.3-1.08-.25-.39-.19-.9.1-1.26.3-.36.66-.7,1-.95.76-.56,1.64-.9,2.66-.92.02,0,.05,0,.07,0,.51,0,1,.09,1.46.24.23.08.46.17.67.28.65.33,1.22.81,1.65,1.4,0,0,0,0,0,0,0,0,0,0,.01.01.17-.28.35-.71.51-1.3.03-.1.06-.21.08-.33.23-1,.16-3.32-2.04-3.32-.04,0-.08.02-.12.03-.23.06-.29.19-.25.32Z" style="fill:#fff; stroke-width:0px;"/><path d="M13.89,21.06c.39.45.75.82,1.09,1.18.13.14.26.29.39.43.44.52.74,1.62-.61,2.65-.19.14-.37.27-.57.37-.2.1-.43.18-.71.23,0,0,0,0,0,0,0,0-.01,0-.02,0,1.53,3.56,3.94,5.16,3.94,5.16,0,0,0-.02,0-.02.01,0,.02.02.02.02,0,0-.4-1-.16-3.03.13-1.06.42-2.12.48-2.67.07-.66-.04-1.27-.46-2.19-.5-1.1-.68-1.42-.93-1.82-.49-.79-1.42-2.44-1.42-2.44,0,0,.29-.3.76-.53.29-.14.64-.24,1.04-.24,1.08,0,1.47.63,1.7.91,0,.02-.02.04-.03.06-.25.53-.39,2.18-.17,3.35.26,1.45,1.17,2.44,1.67,3.05,0,.01.06.07.06.07.36-.36,1.09-.49,1.1-.49,0,0-.02-.72.35-1.3-2.09-.44-2.42-1.57-1.79-3.89,0-.02.02-.04.03-.06.31-1.04.61-1.3.41-2.31-.16-.4-.75-.94-1.1-1.18-.93-.63-2.19-1.02-3.23-.84-.33.06-.66.17-.97.34-.93.51-1.65,1.53-1.65,3.03,0,.18.02.35.05.52.06.5.24,1.07.73,1.64Z" style="fill:#fff; stroke-width:0px;"/><path d="M28.6,22.11s.76.08,1.35.31c.72.28.99.52.99.52,0,0,.07-.07.07-.07,0,0,0,0,0,0,0,0,.5-.56.77-1.14.11-.24.24-.67.25-.71.08-.42.03-.82-.1-1.19-.08-.34-.3-.66-.62-.95-.18-.16-.4-.32-.65-.46-.36-.17-.75-.24-1.13-.18h0s-.01,0-.02,0c0,0,.04.46-.04,1.32-.14,1.5-.89,2.53-.89,2.53Z" style="fill:#fff; stroke-width:0px;"/><path d="M27.04,22.04h0c.06,0,.12-.02.18-.04.41-.16.95-.91,1.27-1.81.34-.96.24-1.8-.16-2.18-.14-.12-.3-.22-.48-.29.22-.19.36-.46.36-.77,0-.48-.31-.87-.75-.99v-.42h.71v-.58h-.71v-.91h-.58v.91h-.72v.58h.72v.42c-.43.12-.74.51-.74.99,0,.31.14.58.36.77-.02,0-.04.01-.05.02-.11.05-.22.11-.32.19-.43.35-.6,1.17-.35,2.16.27,1.05.84,1.91,1.26,1.96Z" style="fill:#fff; stroke-width:0px;"/><path d="M22.4,21.65c.16.35.41.69.58.91.02-.01.04-.02.06-.03,1.27-.5,2.54-.51,2.54-.51h0s.02,0,.02,0c0,0-.75-1.04-.89-2.53-.08-.87-.04-1.32-.04-1.32-.38-.06-.77.01-1.13.18,0,0,0,0,0,0,0,0,0,0,0,0-.25.14-.47.29-.65.46-.32.29-.54.61-.62.95-.13.37-.18.77-.1,1.19,0,.04.14.47.25.71Z" style="fill:#fff; stroke-width:0px;"/><path d="M26.93,31.26s.05-.01.08-.02c.07-.03.11-.1.11-.18,0-.07-.05-.13-.12-.16-.68-.27-1.28-.61-2.22-.52-.84.08-1.64.67-2.07,1.07-.11.1-.7.62-.75.66-.22.16-.45.31-.71.39-.47.18-1.03.23-1.61.19-.05,0-.11-.01-.17-.02h-.03s-.03,0-.05,0c0,0,0,0-.01,0,0,0,0,0,0,0-.08.01-.14.08-.15.16,0,.06.02.13.07.16,0,0,0,0,0,0,.08.06.16.1.25.15,0,0,.01,0,.02,0,.13.07.26.14.41.19.1.04.21.08.31.11.02,0,.04.01.05.02.41.11.84.13,1.25.06.4-.08.7-.29,1.05-.51.27-.17.67-.59,1.13-.92.35-.25.8-.39,1.24-.53.6-.18,1.24-.29,1.91-.34Z" style="fill:#fff; stroke-width:0px;"/><path d="M19.55,29.43c.03.12.05.22.08.33.16.6.35,1.02.51,1.3,0,0,0,0,.01-.01,0,0,0,0,0,0,.43-.59,1-1.07,1.65-1.4.22-.11.44-.2.67-.28.46-.15.95-.24,1.46-.24.02,0,.05,0,.07,0,1.02.02,1.9.36,2.66.92.34.25.7.59,1,.95.3.36.35.87.1,1.26-.38.61-1.02.95-1.3,1.08-.38.17-.84.25-1.29.25-.79,0-1.35-.3-1.36-.3,0,0,0,0,0,0,0,0,0,0,0,0,0,0,0,0-.01,0-.03.04-.02.1.13.24.18.18,1.85,1.18,3.64-.02.1-.07.44-.32.74-.71.51-.65.51-1.57.04-2.25-.14-.21-.3-.41-.45-.58-.49-.55-1.89-1.75-3.08-2.08-2.03-.56-2.6-.19-3.15-.26-.75-.09-.57-.52-.07-.81.16-.09.3-.23.34-.37.04-.13-.01-.26-.25-.32-.04,0-.08-.03-.12-.03-2.2,0-2.27,2.32-2.04,3.32Z" style="fill:#fff; stroke-width:0px;"/><path d="M46.37,63.43v.02s.01,0,.02,0c0,0,0-.02-.02-.02Z" style="fill:#fff; stroke-width:0px;"/><path d="M37.29,40.96c.07.15.36.38.43.83,0,.05,1.11-1.17,1.11-1.17v-1.17l-1.18.5-.36,1.02Z" style="fill:#fff; stroke-width:0px;"/><path d="M30.09,71.71c.53-.14,1.02-.31,1.54-.51.26-.1.51-.21.77-.34.26-.13.51-.28.76-.45.24-.17.47-.39.66-.63.1-.12.18-.25.25-.4.03-.07.07-.15.09-.22l.05-.19h0c.03-.15-.05-.29-.19-.32-.05-.01-.11,0-.16.01-.05.01-.09.04-.12.08-.16.19-.33.32-.52.42-.18.1-.38.17-.59.23-.43.13-.9.19-1.39.25-.48.06-1,.11-1.47.16-.48.04-.96.07-1.45.08l-1.52.05c-.53.03-1.08.06-1.71.2-.24.06-.5.13-.77.26-.09.04-.18.09-.27.14-.35.22-.69.57-.86.98-.18.41-.2.81-.13,1.15.08.35.22.64.47.9.1.1.25.13.37.07.04-.02.15-.11.15-.11.44-.71,1.38-1.09,1.56-1.13.76-.18,1.84-.22,2.89-.38.53-.08,1.07-.18,1.6-.32Z" style="fill:#fff; stroke-width:0px;"/><path d="M25.31,68.78c0,.14.1.26.24.27.06,0,.11-.01.16-.04h0s0,0,0,0l.08-.06c.12-.08.24-.15.37-.21.38-.17.75-.23,1.13-.24.51-.02,1.03.05,1.63.15.65.12,1.37.17,2.08.11.36-.03.72-.1,1.09-.2.18-.06.37-.12.56-.22,0,0,0,0,0,0,0,0,0,0,.01,0,.17-.1.42-.22.54-.49.05-.1,0-.23-.1-.28-.02,0-.03-.01-.05-.02,0,0-.72-.13-1.01-.22l-.91-.23c-.63-.15-1.22-.29-1.89-.4-.71-.12-1.56-.12-2.34.19-.1.04-.2.08-.29.13-.67.34-1.25.97-1.3,1.76Z" style="fill:#fff; stroke-width:0px;"/><path d="M26.34,66.25s.45-.16.65-.22c0,0,0,0,0,0,0,0-2.47-.9-1.06-2.49v-.06s0-.01,0,0c-.24-.03-.48,0-.69.08-.22.09-.41.23-.57.43-.67.83.25,1.74.27,1.75-.14-.01-.47-.06-.61-.07-.6-.41-1.59-1.42-.17-3.55-.04,0-.07,0-.11,0-.21,0-.41.03-.6.11-.11.04-.22.08-.32.13-.7.34-1.18,1-1.18,1.77,0,.31.09.61.23.87.1.19.24.36.4.52-.11,0-.56-.04-.67-.07-.65-.75-1.37-2.15.02-3.79-.04,0-.07,0-.11,0-.21,0-.41.03-.6.11-.13.05-.24.1-.35.16-.77.44-1.14,1.28-1.14,1.97,0,.31.11.82.23,1.1.91,2.23,5.22,1.55,6.38,1.26Z" style="fill:#fff; stroke-width:0px;"/><path d="M48.24,70.55c-.09-.06-.18-.1-.27-.14-.27-.13-.53-.2-.77-.26-.63-.15-1.18-.17-1.71-.2l-1.52-.05c-.49-.02-.98-.04-1.45-.08-.47-.05-.99-.1-1.47-.16-.48-.06-.96-.13-1.39-.25-.21-.07-.41-.14-.59-.23-.19-.1-.36-.23-.52-.42-.03-.04-.07-.06-.12-.08-.05-.02-.1-.03-.16-.01-.14.03-.22.18-.19.32h0s.05.2.05.2c.02.07.06.15.09.22.07.14.15.27.25.4.19.24.42.46.66.63.25.17.5.32.76.45.25.13.51.24.77.34.52.2,1,.36,1.54.51.54.14,1.07.24,1.6.32,1.05.15,2.13.2,2.89.38.18.04,1.12.42,1.56,1.13,0,0,.11.09.15.11.12.05.27.03.37-.07.25-.26.39-.56.47-.9.07-.34.05-.75-.13-1.15-.17-.41-.52-.76-.86-.98Z" style="fill:#fff; stroke-width:0px;"/><path d="M39.61,68.34s0,0,.01,0c0,0,0,0,0,0,.19.1.38.16.56.22.37.1.73.17,1.09.2.71.06,1.44,0,2.08-.11.6-.11,1.12-.17,1.63-.15.37,0,.75.07,1.13.24.12.06.24.12.37.21l.08.05s0,0,0,0h.01s.1.05.16.05c.14,0,.25-.13.24-.27-.05-.79-.63-1.41-1.3-1.76-.1-.05-.19-.1-.29-.13-.79-.31-1.63-.31-2.34-.19-.67.11-1.26.25-1.89.4l-.91.23c-.29.08-1.01.22-1.01.22-.02,0-.03,0-.05.02-.1.05-.15.17-.1.28.12.27.37.4.54.49Z" style="fill:#fff; stroke-width:0px;"/><path d="M51.41,61.92c-.11-.06-.23-.12-.35-.16-.19-.08-.39-.12-.6-.11-.04,0-.07,0-.11,0,1.39,1.64.67,3.04.02,3.79-.11.03-.56.06-.67.07.16-.15.3-.32.4-.52.14-.26.23-.56.23-.87,0-.77-.48-1.43-1.18-1.77-.1-.05-.21-.09-.32-.13-.19-.08-.39-.12-.6-.11-.04,0-.07,0-.11,0,1.42,2.13.43,3.14-.17,3.55-.14.01-.47.06-.61.07.02-.02.95-.92.27-1.75-.16-.2-.35-.34-.57-.43-.22-.09-.46-.11-.69-.08,0,0,0,.01-.01,0v.06c1.41,1.59-1.06,2.49-1.06,2.49h0c.2.07.62.22.65.23,1.16.29,5.47.97,6.38-1.26.11-.28.23-.79.23-1.1,0-.69-.38-1.53-1.14-1.97Z" style="fill:#fff; stroke-width:0px;"/><path d="M43.38,48.03c-.45-.82-1.07-1.35-1.83-1.47-.41-.06-.82,0-1.23.18,0,0-.08.03-.08.03-.31.14-.61.34-.9.59-1.18,1.03-2.19,2.94-2.61,5.22-.4,2.18-.17,4.2.51,5.53.45.89,1.1,1.48,1.89,1.6.78.12,1.59-.23,2.32-.91,1.13-1.05,2.09-2.91,2.49-5.11.41-2.25.15-4.34-.58-5.67ZM38,51.91c.45-1.72,1.16-2.67,1.16-2.67.4-.59.86-1.02,1.32-1.25.37-.21.84-.23,1.31-.02.24.11.45.28.61.48,0,0,0,0,0,0,.03.05.05.08.08.12.03.06.06.12.09.18.16.32.27.66.35,1.05,0,.05.02.09.02.14.17,1.19.16,1.36.15,2.6,0,.07-.03.54-.04.61-.06.47-.24,1.45-.79,2.76-.16.51-.54.98-.53.99-.64,1.09-1.64,1.74-2.33,1.66-.51-.06-.8-.35-.97-.54-.48-.54-.52-.84-.59-1.08-.16-.51-.14-.77-.16-1.04-.13-1.34.02-2.33.17-3.23.02-.12.08-.42.12-.62,0,0,.01-.07.03-.13" style="fill:#fff; stroke-width:0px;"/><path d="M38.09,51.88c.01-.05.02-.1.03-.13" style="fill:#fff; stroke-width:0px;"/><path d="M68.44,41.67c-.06-.2-.2-.36-.37-.44-.17-.09-.37-.12-.57-.06h-.03c-.85.26-1.75.53-2.63.73-.44.11-.88.21-1.31.31-.44.09-.87.17-1.34.23-.92.12-1.84.23-2.77.31-.59.05-1.2.09-1.79.12.08-.02.17-.04.26-.07.26-.07.51-.14.76-.22.5-.16.99-.32,1.47-.5.97-.35,1.91-.74,2.84-1.15.94-.4,1.92-.86,2.79-1.42.87-.58,1.7-1.18,2.46-1.93.24-.23.3-.6.12-.9-.08-.14-.19-.24-.32-.3-.22-.11-.48-.11-.7.02l-.03.02c-.81.47-1.67.95-2.52,1.36-.86.42-1.69.83-2.61,1.14-.92.32-1.85.62-2.78.88-.46.13-.93.25-1.39.36l-.31.07c.23-.1.46-.2.68-.31.51-.25.99-.51,1.46-.78.95-.54,1.85-1.13,2.73-1.73.91-.61,1.81-1.28,2.6-2.03.79-.77,1.51-1.57,2.14-2.5.19-.28.17-.66-.07-.91-.07-.08-.15-.14-.24-.18-.26-.13-.59-.09-.82.12l-.03.02c-.73.66-1.51,1.34-2.3,1.94-.8.61-1.58,1.21-2.45,1.71-.16.1-.33.18-.49.28-.73.41-1.46.81-2.2,1.17-.14.07-.29.13-.43.2-.27.12-.54.24-.81.35.05-.03.1-.07.15-.1.32-.22.62-.46.91-.69.16-.13.32-.26.48-.39.87-.74,1.68-1.52,2.45-2.31,0-.01.02-.02.03-.03.82-.84,1.59-1.7,2.24-2.65.64-.96,1.22-1.93,1.67-3.03.13-.31.03-.68-.26-.88,0,0,0,0-.01,0,0,0,0,0,0,0-.33-.24-.8-.16-1.03.18l-.02.03c-.59.84-1.25,1.71-1.94,2.51-.21.24-.41.48-.62.72-.49.55-.99,1.09-1.53,1.57-.27.24-.55.47-.82.7-.5.42-1,.83-1.52,1.21.08-.1.16-.21.24-.31.42-.58.82-1.18,1.19-1.77.26-.41.51-.83.76-1.25.43-.73.83-1.47,1.17-2.23.15-.34.3-.69.43-1.04.41-1.15.74-2.28.92-3.52.05-.34-.15-.68-.48-.8,0,0,0,0,0,0,0,0,0,0-.01,0-.38-.14-.81.06-.94.45v.04c-.32.88-.7,1.78-1.11,2.65-.06.14-.12.28-.19.42-.46.95-.94,1.87-1.5,2.75-.03.05-.06.11-.1.16-.42.62-.86,1.21-1.31,1.8-1.38,1.54-3.71,3.08-4.97,3.69-.61.3-1.24.71-1.87,1.01,0,0-.02.01-.03.01-.42.21-.79.53-1,.95-.05.11-.1.22-.14.33-.07.2-.11.42-.11.64,0,.81.44,1.58,1.1,1.92.22.12.46.19.72.2.04,0,.08,0,.12,0,.23-.02.35-.12.35-.12,0,0-.18-.47.09-.69.04-.03.09-.05.14-.08.12-.06.26-.09.41-.09.14,0,.27.03.38.08.35.15.6.5.6.91,0,.5-.38.92-.86.98-.22.09-.64.1-.91.1-.56,0-1.1-.06-1.63-.16-.73-.13-1.42-.36-2.07-.66-.79-.36-2.23-1.42-2.21-1.48-1.49-1.38-2.43-3.28-2.51-5.38,0-.1-.02-.19-.02-.29,0-.3.02-.63.06-.92.06-.52.18-1.03.34-1.52.29-.88.73-1.7,1.29-2.41.05-.07.31-.35.64-.67.02-.02.04-.04.06-.06,0,0,0,0,.01-.01.36-.36.8-.76,1.18-1,0,0,0,0,0,0,0,0,0,0,0,0-.03-.02-.07-.05-.11-.09-.05-.05-.1-.1-.12-.13-.68-.07-.93-.39-1.04-.67,0,0,0-.02,0-.03,0-.02-.02-.05-.03-.07-.04-.1-.03-.41-.02-.46.05-.25.2-.5.33-.63.06-.07.13-.13.19-.18.21-.16.44-.25.69-.29.06-.01.12-.02.19-.03,0,0,.02,0,.02,0,.64-.07,1.26.21,1.52.86h0s-.4.1-.4.1h0s0,0,0,0c-.13-.28-.35-.4-.6-.38-.08,0-.17.03-.27.06-.06.02-.11.05-.15.09-.41.35-.05,1.23.52,1.29.09,0,.18,0,.28-.04,0,0,0,0,.01,0,.25-.1,1.83-.48,2.78-.63.18-.03.34-.05.47-.06,0,0,0,0,.01,0,0,0,0,0,0,0,0,0,0,0,0,0,.16-.27.17-2.02-1.21-2.59-1.09-.45-2.04-.52-2.9-.53-.78,0-1.48.08-2.21.24-2.81.62-4.52,2.24-6.08,5.77h0c-1.06,2.08-1.44,4.08-1.59,4.63,0,0-.06,0-.16,0-.16-.59-.54-2.57-1.58-4.63h0c-1.57-3.52-3.28-5.15-6.09-5.77-.72-.16-1.44-.24-2.22-.24-.86,0-1.8.07-2.9.53-1.38.57-1.37,2.32-1.21,2.59,0,0,0,0,.01,0,.12,0,.28.03.47.06.95.15,2.53.53,2.78.63,0,0,0,0,.01,0,.1.04.19.05.28.04.62-.07,1-1.13.37-1.38-.09-.04-.18-.06-.27-.06-.25-.02-.47.1-.6.38h0s0,0,0,0c0,0-.39-.07-.41-.1h0c.25-.66.88-.93,1.52-.86,0,0,.02,0,.02,0,.06,0,.13.02.19.03.33.06.64.2.89.48.13.12.28.37.33.63.01.04.01.36-.02.46,0,.02-.02.04-.03.07,0,0,0,.02,0,.03-.11.28-.36.6-1.04.67-.03.03-.08.08-.12.13-.04.04-.08.08-.11.09.4.26.87.7,1.25,1.07.33.33.58.61.64.68.56.71,1,1.53,1.29,2.41.16.49.28,1,.34,1.52.03.29.06.63.06.93,0,.1-.01.2-.02.29,0,.18-.02.35-.04.52-.19.88-.58,2.31-1.31,3.52-.04.05-.07.11-.11.16h.01c-.28.43-.6.83-.98,1.16.02.06-1.42,1.12-2.21,1.48-.65.3-1.34.53-2.07.66-.53.1-1.07.16-1.63.16-.27,0-.69-.01-.91-.1-.49-.07-.86-.48-.86-.98,0-.41.25-.76.6-.91.12-.05.25-.08.38-.08.15,0,.28.03.41.09.05.02.1.05.14.08.27.21.09.69.09.69,0,0,.13.1.35.12.04,0,.07.01.12,0,.26,0,.51-.08.72-.2.66-.35,1.1-1.12,1.1-1.92,0-.23-.04-.44-.11-.64-.04-.11-.08-.23-.14-.33-.21-.42-.58-.75-1-.95,0,0-.02-.01-.03-.01-.63-.31-1.25-.72-1.87-1.01-1.26-.61-3.59-2.15-4.97-3.69-.45-.58-.89-1.18-1.31-1.8-.03-.05-.06-.1-.1-.16-.56-.87-1.04-1.8-1.5-2.75-.07-.14-.12-.28-.19-.42-.41-.87-.78-1.78-1.09-2.65v-.04c-.15-.38-.57-.59-.96-.45,0,0,0,0-.01,0,0,0,0,0,0,0-.34.12-.53.46-.48.8.17,1.24.51,2.38.92,3.52.13.35.27.7.43,1.04.34.76.74,1.51,1.17,2.23.25.42.5.84.76,1.25.37.6.77,1.19,1.19,1.77.08.1.16.21.24.31-.51-.38-1.02-.79-1.52-1.21-.28-.23-.55-.46-.82-.7-.54-.48-1.04-1.02-1.53-1.57-.21-.24-.41-.48-.62-.72-.69-.8-1.34-1.67-1.94-2.51l-.02-.03c-.23-.33-.7-.41-1.03-.18,0,0,0,0,0,0,0,0,0,0-.01,0-.29.2-.39.57-.26.88.45,1.1,1.03,2.07,1.67,3.03.65.95,1.42,1.81,2.24,2.65,0,0,.02.02.03.03.78.79,1.58,1.57,2.45,2.31.16.13.32.26.48.39.29.24.59.47.91.69.05.03.1.07.15.1-.27-.11-.54-.23-.81-.35-.14-.07-.29-.13-.43-.2-.74-.36-1.47-.75-2.2-1.17-.16-.09-.33-.18-.49-.28-.87-.5-1.65-1.1-2.45-1.71-.8-.6-1.58-1.28-2.3-1.94l-.03-.02c-.23-.21-.55-.24-.82-.12-.09.04-.17.1-.24.18-.23.26-.25.64-.07.91.63.94,1.36,1.73,2.14,2.5.79.76,1.69,1.42,2.6,2.03.88.61,1.79,1.19,2.73,1.73.47.27.96.53,1.46.78.22.11.45.21.68.31l-.31-.07c-.46-.11-.93-.23-1.39-.36-.93-.26-1.86-.56-2.78-.88-.92-.31-1.74-.72-2.61-1.14-.86-.41-1.71-.89-2.52-1.36l-.03-.02c-.22-.13-.49-.13-.7-.02-.13.06-.25.16-.32.3-.17.3-.11.67.12.9.77.75,1.59,1.35,2.46,1.93.87.56,1.85,1.02,2.79,1.42.94.41,1.88.8,2.84,1.15.48.18.97.34,1.47.5.25.08.5.15.76.22.09.02.17.05.26.07-.59-.03-1.19-.07-1.79-.12-.92-.08-1.85-.18-2.77-.31-.47-.06-.9-.14-1.34-.23-.44-.1-.87-.2-1.31-.31-.88-.2-1.77-.47-2.63-.73h-.03c-.2-.07-.4-.04-.57.05-.17.09-.31.24-.37.44-.1.33.04.67.32.84.86.53,1.75.92,2.67,1.28.91.35,1.93.57,2.86.77.94.2,1.89.39,2.84.55.86.14,1.69.27,2.59.36-.54.07-1.09.13-1.64.18-.88.09-1.76.16-2.64.22-.22.02-.44.02-.66.03h-.63s-1.28-.01-1.28-.01c-.86,0-1.74-.07-2.59-.12h-.03c-.15,0-.3.03-.42.1-.21.12-.36.34-.37.6-.02.34.19.64.5.74.91.31,1.8.5,2.73.65.46.07.93.11,1.4.13.24.01.47.02.71.02h.68c.91.03,1.82.03,2.73.02.63,0,.77,0,1.4-.03l.08.28c-1.04.33-1.75.54-2.8.83-.82.23-1.59.38-2.4.55-.8.18-1.63.32-2.43.49h-.02c-.05.02-.11.03-.16.06-.32.13-.51.48-.44.83.07.33.34.56.66.59.89.08,1.76.06,2.64,0,.88-.06,1.77-.26,2.6-.41.84-.16,2.08-.45,2.92-.62l.07.21c-.35.2-1.1.6-1.45.79-.35.19-.69.37-1.04.54-.34.17-.69.33-1.04.51h0s0,0-.01,0c-.7.36-1.42.7-2.11,1.08h-.01c-.36.2-.5.65-.3,1.02.16.29.48.44.79.38.82-.16,1.6-.39,2.39-.64.78-.26,1.54-.62,2.28-.95.2-.09.98-.42,1.17-.51l.13.62c-.12.08-.56.39-.56.39l-.86.74c-.57.5-1.09,1.06-1.59,1.64-.27.32-.23.79.08,1.06.24.2.57.23.83.09,0,0,0,0,.01,0,0,0,0,0,0,0,.69-.36,1.34-.76,1.96-1.2l.65-.38s.36,2.16.45,3.05c.29,2.78.21,5.97.51,6.34.25.31.75.24,1.19.25-.03-.11-.04-.2-.07-.31,0-.01,0-.02,0-.03-.32-1.49.12-2.58.4-3.03,0,0,0-.02,0-.02,0,0,.03-.1.03-.12-.1-1.76-.33-4.61-.73-6.82-.64-3.52-1.7-9.17-2.01-10.77-.02-.09.02-.18.08-.24.07-.06.16-.09.26-.06,1.08.27,2.86.43,4,.51.86.06,2.9.05,5.01-.6-.89,2.11-1.4,4.52-1.4,7.09,0,5.03,1.95,9.48,4.93,12.15-.35.06-.61.11-.69.13-.77.27-1.37.66-1.7.85,0,0-.01.01-.02.02-.02.01-.05.02-.07.03-.12.06-.12.2-.1.33.08.36.28.82.48,1.09.04.06.09.12.16.12,2.78.14,4.83.35,6.47,1.39,0,0,.01,0,.02.01.05.03.09.06.13.09.77.61,1.09,1.87.45,2.77-.22.22-.44.44-.67.65-.76.66-1.59,1.22-2.46,1.64-.87.42-1.78.69-2.7.82-.93.17-1.85.29-3.06.58h0s-.08.03-.11.05c-.1.07-.16.19-.13.31.01.05.04.1.07.13.89.96,2.2,1.34,3.47,1.27.96-.07,1.89-.35,2.74-.76.28-.14.56-.28.82-.45,1.05-.65,1.96-1.5,2.64-2.5.01-.02.03-.04.04-.06,0,.01,0,.02,0,.03-.16.54-.67,1.96-1.08,2.43-.42.48-.8.94-1.24,1.3-.33.27-.67.5-1.06.69-.13.06-.26.12-.39.18-.55.23-1.19.38-1.94.54h0s-.07.03-.1.05c-.1.06-.15.17-.13.29.02.07.05.13.11.17.67.47,1.51.7,2.38.64.44-.03.88-.13,1.3-.3.41-.17.8-.4,1.14-.68.11-.09.21-.2.31-.3.19.38.4.77.54,1.15.19.46.35.91.6,1.37.06.1.18.15.23.14,0,0,.2-.04.25-.14.25-.46.43-.91.62-1.37.15-.38.35-.76.54-1.15.1.1.19.21.31.3.34.28.73.51,1.14.68.42.17.86.28,1.3.3.87.05,1.71-.17,2.38-.64.05-.04.09-.1.11-.17.03-.12-.03-.23-.13-.29-.03-.02-.06-.04-.1-.05h0c-.75-.16-1.39-.31-1.94-.54-.14-.05-.27-.11-.39-.18-.38-.19-.73-.42-1.06-.69-.44-.36-.82-.82-1.24-1.3-.41-.47-.93-1.89-1.08-2.43,0-.01,0-.02,0-.03.01.02.03.04.04.06.68,1,1.59,1.85,2.64,2.5.26.16.54.31.82.45.85.41,1.78.68,2.74.76,1.27.07,2.58-.31,3.47-1.27.03-.04.06-.08.07-.13.03-.12-.03-.24-.13-.31-.03-.02-.07-.04-.11-.05h0c-1.21-.29-2.13-.41-3.06-.58-.92-.13-1.83-.4-2.7-.82-.87-.42-1.7-.98-2.46-1.64-.22-.21-.45-.42-.67-.65-.63-.9-.32-2.16.45-2.77.04-.03.09-.06.13-.09,0,0,.01,0,.02-.01,1.64-1.04,3.69-1.25,6.47-1.39.07,0,.12-.06.16-.12.2-.27.4-.72.48-1.09.03-.13.02-.26-.1-.33-.02-.01-.05-.02-.07-.03,0,0-.02-.01-.02-.02-.34-.2-.94-.58-1.71-.85-.07-.02-.32-.07-.65-.12,2.98-2.67,4.94-7.12,4.94-12.16,0-2.57-.51-4.98-1.41-7.08,2.1.64,4.13.64,4.98.59,1.15-.08,2.92-.24,4-.51.1-.02.19,0,.26.06.06.06.09.15.08.24-.3,1.6-1.37,7.24-2.01,10.77-.4,2.21-.64,5.06-.73,6.82,0,.02.02.11.03.12,0,0,0,.02,0,.02.27.45.72,1.55.4,3.03,0,.01,0,.02,0,.03-.02.1-.04.2-.07.31.45-.01.94.06,1.19-.25.3-.37.22-3.57.51-6.34.09-.89.45-3.04.45-3.05l.65.38c.62.44,1.27.84,1.96,1.2,0,0,0,0,0,0,0,0,0,0,.01,0,.26.14.59.11.83-.09.32-.27.35-.74.08-1.06-.5-.59-1.03-1.14-1.59-1.64l-.86-.74s-.44-.31-.56-.39l.13-.62c.2.09.97.42,1.17.51.74.32,1.5.69,2.28.95.79.25,1.57.48,2.39.64.31.06.64-.08.79-.38.2-.36.06-.81-.3-1.01h-.01c-.69-.38-1.41-.73-2.11-1.09,0,0,0,0-.01,0h0c-.35-.17-.69-.34-1.04-.51-.35-.17-.7-.34-1.04-.54-.35-.19-1.1-.59-1.45-.79l.07-.21c.84.17,2.07.47,2.92.62.84.16,1.72.35,2.6.41.88.06,1.75.08,2.64,0,.32-.03.59-.26.66-.59.07-.35-.12-.7-.44-.83-.05-.02-.1-.04-.16-.05h-.02c-.8-.17-1.63-.31-2.43-.49-.81-.17-1.58-.32-2.4-.55-1.05-.29-1.76-.51-2.8-.83l.08-.28c.63.02.77.02,1.4.03.91.01,1.82,0,2.73-.01h.68c.24-.01.48-.02.71-.03.47-.02.94-.06,1.4-.13.93-.15,1.82-.34,2.73-.65.31-.11.52-.4.5-.74-.01-.26-.16-.48-.37-.6-.12-.07-.27-.11-.42-.1h-.03c-.85.05-1.73.11-2.59.12l-1.28.02h-.63c-.23-.02-.44-.03-.66-.04-.88-.06-1.76-.13-2.64-.22-.55-.05-1.1-.12-1.64-.18.9-.09,1.73-.22,2.59-.36.95-.16,1.9-.35,2.84-.55.93-.19,1.95-.42,2.86-.77.93-.36,1.81-.75,2.67-1.28.28-.17.42-.51.32-.84ZM36.1,64.36s-.03,0-.04,0c-3.31-.02-6.24-2.24-8.01-5.62.82-1.39,2.53-4.43,2.53-4.43.16.62,1.11,4.74,1.11,4.74,0,0-1.2.52-.59.89.61.37,1.9.1,1.9.1,0,0,.33.3.68.54.42.32.9.55,1.41.69.19.08.33.12.33.12,0,0-.12.57.06.86.07.12.14.22.37.22.07,0,.13-.02.2-.04.2-.07.39-.23.5-.35.28-.29.38-.49.58-.77,0-.01,0-.03.02-.05.49-.13,1.01-.31,1.51-.93-1.2-.47-2.22-1.57-2.61-3.38-.14-.66-.22-1.38-.23-2.14,0-.8.06-1.63.21-2.49,0-.03.01-.06.02-.09.56-2.97,2.41-5.24,2.95-5.43-.17-.38-.1-1.35-1.39-1.88-.28-.12-1.14-.17-1.23-.56.41-.28.72-.8.79-1.42.1-.84-.25-1.59-.82-1.86.14-.31.47-.73.47-.73l-.65-.69-.13.07-.7.38s.21.61.21.93c-.56.19-.97.62-1.07,1.4-.05.38.16.97.6,1.41.23.23.28.43.14.58-.32.32-.98.24-1.32.73-.21.31-.47,1.03-.47,1.03-.16.32-1.1,2.57-1.56,3.36-.12.2-.58.93-.58.93,0,0-.2.14-.43.32-.19.15-.39.33-.51.48-.35.45-.21,1.27,0,1.61l-2.73,4.98c-.11-.23-.16-.35-.16-.35-.77-1.87-1.2-4.02-1.2-6.3,0-6.98,4.09-12.7,9.23-13.11h1.19c.57.05,1.12.16,1.66.33.28.09.56.19.83.31,3.9,1.74,6.73,6.67,6.73,12.47,0,7.25-4.4,13.14-9.82,13.14ZM35.09,50.13s-1.91.72-2.82,1.09l1.86-3.23s.09.45.84.77c-.02.12.11,1.37.11,1.37Z" style="fill:#fff; stroke-width:0px;"/><path d="M33.29,4.22s.07-.01.1-.02c.14.23.37.39.66.39h0c.28,0,.53-.15.66-.39h1.04v.68c-.66.16-1.16.76-1.16,1.47,0,.38.15.73.38.99-.25.09-.48.22-.67.4-.6.57-.75,1.79-.24,3.22.36.99.88,1.81,1.38,2.29.23.24.45.35.66.35h.05c.21,0,.43-.11.66-.35.5-.48,1.03-1.3,1.38-2.29.51-1.43.36-2.64-.24-3.22-.2-.18-.44-.32-.69-.41.22-.26.37-.61.37-.98,0-.71-.49-1.31-1.16-1.47v-.68h1.04c.12.23.37.39.66.39h0c.29,0,.54-.16.67-.41.03,0,.06.02.09.02.2,0,.36-.16.36-.36s-.16-.36-.36-.36c-.02,0-.05,0-.08.01-.13-.24-.38-.41-.67-.41h0c-.28,0-.53.16-.66.39h-1.04v-1.37c.24-.14.39-.37.39-.66s-.17-.56-.42-.68c.02-.04.02-.07.02-.11,0-.2-.16-.36-.36-.36s-.36.17-.36.36c0,.04.01.08.03.11-.25.12-.42.38-.42.68s.15.53.39.66v1.37h-1.04c-.14-.23-.38-.39-.66-.39h0c-.3,0-.57.18-.68.43-.03,0-.05,0-.08,0-.2,0-.36.15-.36.36s.17.36.36.36Z" style="fill:#fff; stroke-width:0px;"/><path d="M42.96,52.24c-.16-.15-.34-.21-.5-.21.09-.19.15-.46.09-.65-.02-.05-.05-.11-.09-.15h0c-.22-.28-.4-.34-.49-.36-.06-.01-.35-.04-.5.16l-.02-.25c-.12.1-.23.42-.26.5-.06.19-.19.66-.19.66.36-.57.56-.64.87-.72-.27.19-.49.62-.61,1.01l.72-.48-.16-.11c.09-.14.18-.2.33-.11.05.03.09.09.1.17,0,.06,0,.22-.14.41h0l-1.3,1.12c-.1.08-.13.16-.12.43,0,.09.09.19.26.03l1.39-1.24c.07-.06.17,0,.2.04.08.12.04.36-.17.67l-.12-.27c-.12.16-.34.56-.52.76,0,0,.36.03.65-.19.08-.06.14-.12.2-.18-.23.59-.76,1.01-.76,1.01,0,0,.36-.04.55-.14.2-.1.39-.23.55-.41l-.26-.09c.13-.18.34-.4.43-.77.07-.29.03-.5-.11-.64Z" style="fill:#fff; stroke-width:0px;"/><path d="M40,52.31l.17-.87-.23.18s-.17-.24-.23-.3c-.23-.25-.45-.36-.68-.32-.26.05-.32.23-.63.14.01.24-.23.33-.36.53-.13.19-.13.44,0,.75.03.08.19.34.19.34l-.3.09.94.27c0-.1-.11-.73-.11-.73l-.22.16c-.09-.11-.12-.18-.18-.28-.09-.15-.14-.27-.1-.37.04-.09.19-.1.27-.11l1.05,1.65c.05.1.15.1.18.04.1-.2.1-.42.06-.47l-.93-1.43c.04-.07.14-.16.22-.17.13-.02.19.01.32.12.09.07.17.2.21.25l-.25.1c.18.13.5.34.6.43Z" style="fill:#fff; stroke-width:0px;"/><path d="M40.18,49.34c.14.2.39.46.5.57,0,0-.16.2-.19.24-.1.17.33.23.36.24.05,0,.46.09.42-.1,0-.05-.12-.28-.12-.28.14-.06.49-.23.69-.37.03-.02.09-.07.11-.09.39-.48.26-.79.26-.79l-.73.45c-.07.04-.1,0-.1,0,.06-.04.15-.26.17-.31.03-.09,0-.15-.11-.17-.1-.02-.14.01-.14.01.02-.04.02-.04.03-.05,0,0,0-.01.01-.02,0-.01,0-.02.01-.04,0,0,0,0,0,0,0,0,0,0,0-.01,0-.1-.08-.19-.19-.19-.08,0-.15.05-.17.13,0,0,0,0,0,.01,0,.04-.01.01,0,.12,0,0-.03-.04-.13-.06-.11-.02-.14.03-.14.12,0,.06-.02.24.03.36,0,0-.05.03-.1-.04l-.53-.68s-.23.24-.03.83c.01.03.05.1.07.13Z" style="fill:#fff; stroke-width:0px;"/><path d="M39.42,54.98c.08-.08.13-.18.15-.29l.04-.21c.02-.12-.11-.18-.2-.1l-1.22,1.16-.03.03s-.06-.02-.09-.02c-.05,0-.11,0-.16.01-.06.02-.11.05-.16.09-.18.17-.22.47-.08.68.07.1.17.17.28.18.09.01.18-.01.25-.06.02-.01.04-.03.06-.04.11-.1.2-.3.15-.46l.99-.96ZM38,56.24c-.11,0-.19-.09-.19-.19s.09-.19.19-.19.19.09.19.19-.09.19-.19.19Z" style="fill:#fff; stroke-width:0px;"/><path d="M41.71,55.98s-.09,0-.13.01l-.9-1.42c-.06-.1-.18-.08-.2.03l-.03.12c-.03.15-.05.15.1.43l.73,1.11c-.07.17-.06.37.04.52.07.1.17.17.29.18.12.01.23-.03.32-.11,0,0,0,0,0,0,.18-.17.22-.48.08-.69-.07-.1-.17-.17-.29-.18ZM41.65,56.65c-.11,0-.19-.09-.19-.19s.09-.19.19-.19.19.09.19.19-.09.19-.19.19Z" style="fill:#fff; stroke-width:0px;"/><path d="M39.72,57.47c.27-1.43.96-5.16.97-5.19.05-.3.22-1.11.26-1.57.03-.17-.25-.28-.31-.04-.08.33-.28,1.19-.35,1.52h0s-.75,3.76-1.04,5.2c-.02.09-.06.16-.11.23-.03.05-.06.11-.07.17-.03.21.09.4.28.43.19.03.36-.11.4-.32,0-.05,0-.1,0-.14-.02-.1-.03-.2-.01-.3Z" style="fill:#fff; stroke-width:0px;"/><rect x="40.57" y="55.75" width="1.38" height=".3" rx=".07" ry=".07" transform="translate(-25.28 35.91) rotate(-36.85)" style="fill:#fff; stroke-width:0px;"/></svg>