<?xml version="1.0" encoding="utf-8"?>
<!-- Generator: Adobe Illustrator 19.2.1, SVG Export Plug-In . SVG Version: 6.00 Build 0)  -->
<svg version="1.1" xmlns="http://www.w3.org/2000/svg" xmlns:xlink="http://www.w3.org/1999/xlink" x="0px" y="0px"
	 viewBox="0 0 763.8 498.9" enable-background="new 0 0 763.8 498.9" xml:space="preserve">
<g id="Layer_2">
	<g>
		<polygon fill="#007DAF" points="46,439.2 39.1,439.2 39.1,412.4 30.3,412.4 30.3,406.7 54.9,406.7 54.9,412.4 46,412.4 		"/>
		<polygon fill="#007DAF" points="93.8,439.2 86.9,439.2 86.9,425.2 74.1,425.2 74.1,439.2 67.2,439.2 67.2,406.7 74.1,406.7 
			74.1,419.4 86.9,419.4 86.9,406.7 93.8,406.7 		"/>
		<polygon fill="#007DAF" points="128,439.2 109.3,439.2 109.3,406.7 128,406.7 128,412.3 116.2,412.3 116.2,419.5 127.2,419.5 
			127.2,425.1 116.2,425.1 116.2,433.5 128,433.5 		"/>
		<path fill="#007DAF" d="M199.3,439.2h-7.9l-4.4-17.1c-0.2-0.6-0.4-1.9-0.8-3.8c-0.4-1.9-0.6-3.2-0.7-3.8c-0.1,0.8-0.3,2.1-0.7,3.9
			c-0.4,1.8-0.6,3-0.8,3.8l-4.4,17h-7.8l-8.3-32.5h6.8l4.2,17.8c0.7,3.3,1.3,6.1,1.6,8.5c0.1-0.9,0.3-2.2,0.6-3.9
			c0.3-1.8,0.6-3.1,0.9-4.1l4.7-18.2h6.5l4.7,18.2c0.2,0.8,0.5,2.1,0.8,3.7c0.3,1.7,0.5,3.1,0.7,4.3c0.2-1.2,0.4-2.6,0.7-4.3
			c0.3-1.7,0.6-3.1,0.9-4.2l4.1-17.8h6.8L199.3,439.2z"/>
		<path fill="#007DAF" d="M224.7,422.9c0,3.6,0.7,6.4,2.1,8.2c1.4,1.8,3.4,2.8,6.2,2.8c5.5,0,8.3-3.7,8.3-11c0-7.3-2.7-11-8.2-11
			c-2.7,0-4.8,0.9-6.2,2.8C225.4,416.5,224.7,419.3,224.7,422.9 M248.5,422.9c0,5.4-1.3,9.5-4,12.4c-2.7,2.9-6.5,4.3-11.5,4.3
			c-5,0-8.8-1.4-11.5-4.3c-2.7-2.9-4-7-4-12.5c0-5.4,1.3-9.5,4-12.4c2.7-2.9,6.5-4.3,11.5-4.3c5,0,8.8,1.4,11.5,4.3
			C247.1,413.4,248.5,417.5,248.5,422.9"/>
		<path fill="#007DAF" d="M269.4,421.1h2.2c2.2,0,3.8-0.4,4.8-1.1c1-0.7,1.6-1.9,1.6-3.4c0-1.5-0.5-2.6-1.6-3.3
			c-1.1-0.7-2.7-1-4.9-1h-2.1V421.1z M269.4,426.7v12.5h-6.9v-32.5h9.5c4.4,0,7.7,0.8,9.8,2.4c2.1,1.6,3.2,4.1,3.2,7.3
			c0,1.9-0.5,3.6-1.6,5.1c-1.1,1.5-2.5,2.7-4.5,3.5c4.9,7.3,8.1,12,9.6,14.2h-7.6l-7.8-12.5H269.4z"/>
		<polygon fill="#007DAF" points="299.9,439.2 299.9,406.7 306.8,406.7 306.8,433.5 320,433.5 320,439.2 		"/>
		<path fill="#007DAF" d="M352.7,422.8c0-7-3.1-10.5-9.3-10.5h-3.7v21.2h3C349.4,433.5,352.7,430,352.7,422.8 M359.9,422.7
			c0,5.3-1.5,9.4-4.6,12.3c-3,2.8-7.4,4.3-13.2,4.3h-9.2v-32.5h10.2c5.3,0,9.4,1.4,12.4,4.2C358.4,413.7,359.9,417.6,359.9,422.7"/>
		<polygon fill="#007DAF" points="426.1,439.2 419.2,439.2 419.2,425.2 406.3,425.2 406.3,439.2 399.4,439.2 399.4,406.7 
			406.3,406.7 406.3,419.4 419.2,419.4 419.2,406.7 426.1,406.7 		"/>
		<path fill="#007DAF" d="M447.3,422.9c0,3.6,0.7,6.4,2.1,8.2c1.4,1.8,3.4,2.8,6.2,2.8c5.5,0,8.3-3.7,8.3-11c0-7.3-2.7-11-8.2-11
			c-2.7,0-4.8,0.9-6.2,2.8C448,416.5,447.3,419.3,447.3,422.9 M471.1,422.9c0,5.4-1.3,9.5-4,12.4c-2.7,2.9-6.5,4.3-11.5,4.3
			c-5,0-8.8-1.4-11.5-4.3c-2.7-2.9-4-7-4-12.5c0-5.4,1.3-9.5,4-12.4c2.7-2.9,6.5-4.3,11.5-4.3c5,0,8.8,1.4,11.5,4.3
			C469.7,413.4,471.1,417.5,471.1,422.9"/>
		<polygon fill="#007DAF" points="485.1,439.2 485.1,406.7 492,406.7 492,433.5 505.2,433.5 505.2,439.2 		"/>
		<path fill="#007DAF" d="M523.9,422.9c0,3.6,0.7,6.4,2.1,8.2c1.4,1.8,3.4,2.8,6.2,2.8c5.5,0,8.3-3.7,8.3-11c0-7.3-2.7-11-8.2-11
			c-2.7,0-4.8,0.9-6.2,2.8C524.6,416.5,523.9,419.3,523.9,422.9 M547.6,422.9c0,5.4-1.3,9.5-4,12.4c-2.7,2.9-6.5,4.3-11.5,4.3
			c-5,0-8.8-1.4-11.5-4.3c-2.7-2.9-4-7-4-12.5c0-5.4,1.3-9.5,4-12.4c2.7-2.9,6.5-4.3,11.5-4.3s8.8,1.4,11.5,4.3
			C546.3,413.4,547.6,417.5,547.6,422.9"/>
		<path fill="#007DAF" d="M575.5,412c-2.6,0-4.6,1-6,2.9c-1.4,2-2.1,4.7-2.1,8.1c0,7.3,2.7,10.9,8.2,10.9c2.3,0,5-0.6,8.3-1.7v5.8
			c-2.7,1.1-5.7,1.7-8.9,1.7c-4.7,0-8.4-1.4-10.9-4.3c-2.5-2.9-3.8-7-3.8-12.4c0-3.4,0.6-6.3,1.8-8.9c1.2-2.5,3-4.5,5.3-5.9
			c2.3-1.4,5-2,8.1-2c3.2,0,6.3,0.8,9.5,2.3l-2.2,5.6c-1.2-0.6-2.4-1.1-3.7-1.5C577.9,412.2,576.7,412,575.5,412"/>
		<path fill="#007DAF" d="M613.9,425.7c-2.2-7-3.4-11-3.7-11.9c-0.3-0.9-0.5-1.6-0.6-2.2c-0.5,1.9-1.9,6.6-4.2,14.1H613.9z
			 M617.9,439.2l-2.4-7.7h-11.9l-2.4,7.7h-7.4l11.5-32.7h8.4l11.5,32.7H617.9z"/>
		<path fill="#007DAF" d="M663.2,406.7v21c0,2.4-0.5,4.5-1.6,6.3c-1.1,1.8-2.6,3.2-4.7,4.2c-2,1-4.4,1.4-7.2,1.4
			c-4.2,0-7.4-1.1-9.7-3.2c-2.3-2.1-3.5-5.1-3.5-8.8v-21h6.9v19.9c0,2.5,0.5,4.3,1.5,5.5c1,1.2,2.7,1.8,5,1.8c2.3,0,3.9-0.6,4.9-1.8
			c1-1.2,1.5-3,1.5-5.5v-19.9H663.2z"/>
		<path fill="#007DAF" d="M697.6,430.2c0,2.9-1.1,5.3-3.2,6.9c-2.1,1.7-5,2.5-8.8,2.5c-3.5,0-6.5-0.6-9.2-2v-6.4
			c2.2,1,4.1,1.7,5.6,2.1c1.5,0.4,2.9,0.6,4.2,0.6c1.5,0,2.7-0.3,3.5-0.9c0.8-0.6,1.2-1.4,1.2-2.6c0-0.6-0.2-1.2-0.5-1.7
			c-0.4-0.5-0.9-1-1.6-1.4c-0.7-0.5-2.1-1.2-4.2-2.2c-2-0.9-3.5-1.8-4.5-2.7c-1-0.9-1.8-1.9-2.4-3c-0.6-1.1-0.9-2.5-0.9-4
			c0-2.9,1-5.1,2.9-6.8c2-1.6,4.6-2.5,8.1-2.5c1.7,0,3.3,0.2,4.8,0.6c1.5,0.4,3.1,1,4.8,1.7l-2.2,5.4c-1.7-0.7-3.2-1.2-4.3-1.5
			c-1.1-0.3-2.2-0.4-3.3-0.4c-1.3,0-2.3,0.3-3,0.9c-0.7,0.6-1,1.4-1,2.4c0,0.6,0.1,1.1,0.4,1.6c0.3,0.5,0.7,0.9,1.3,1.3
			c0.6,0.4,2.1,1.2,4.4,2.3c3,1.4,5.1,2.9,6.2,4.4C697.1,426.3,697.6,428.1,697.6,430.2"/>
		<polygon fill="#007DAF" points="723.4,439.2 716.5,439.2 716.5,412.4 707.6,412.4 707.6,406.7 732.2,406.7 732.2,412.4 
			723.4,412.4 		"/>
		<path fill="#007DAF" d="M40.4,480.4h2.2c2.2,0,3.8-0.4,4.8-1.1c1-0.7,1.6-1.9,1.6-3.4c0-1.5-0.5-2.6-1.6-3.3c-1.1-0.6-2.7-1-4.9-1
			h-2.1V480.4z M40.4,486v12.5h-6.9v-32.5H43c4.4,0,7.7,0.8,9.8,2.4c2.1,1.6,3.2,4.1,3.2,7.3c0,1.9-0.5,3.6-1.6,5.1
			c-1.1,1.5-2.5,2.7-4.5,3.5c4.9,7.3,8.1,12,9.6,14.2h-7.7L44.1,486H40.4z"/>
		<polygon fill="#007DAF" points="91.6,498.5 72.9,498.5 72.9,465.9 91.6,465.9 91.6,471.6 79.8,471.6 79.8,478.7 90.8,478.7 
			90.8,484.4 79.8,484.4 79.8,492.8 91.6,492.8 		"/>
		<path fill="#007DAF" d="M121.4,498.5l-7.8-25.5h-0.2c0.3,5.2,0.4,8.7,0.4,10.4v15.1h-6.2v-32.5h9.4l7.7,24.9h0.1l8.2-24.9h9.4
			v32.5H136v-15.4c0-0.7,0-1.6,0-2.5c0-1,0.1-3.5,0.3-7.6h-0.2l-8.4,25.5H121.4z"/>
		<polygon fill="#007DAF" points="178.6,498.5 159.9,498.5 159.9,465.9 178.6,465.9 178.6,471.6 166.8,471.6 166.8,478.7 
			177.8,478.7 177.8,484.4 166.8,484.4 166.8,492.8 178.6,492.8 		"/>
		<path fill="#007DAF" d="M208.5,498.5l-7.8-25.5h-0.2c0.3,5.2,0.4,8.7,0.4,10.4v15.1h-6.2v-32.5h9.4l7.7,24.9h0.1l8.2-24.9h9.4
			v32.5h-6.4v-15.4c0-0.7,0-1.6,0-2.5c0-1,0.1-3.5,0.3-7.6h-0.2l-8.4,25.5H208.5z"/>
		<path fill="#007DAF" d="M253.9,484.3v8.5h4.5c1.9,0,3.3-0.4,4.2-1.1c0.9-0.7,1.4-1.8,1.4-3.3c0-2.7-1.9-4-5.8-4H253.9z
			 M253.9,478.8h4c1.9,0,3.2-0.3,4.1-0.9c0.8-0.6,1.3-1.5,1.3-2.9c0-1.2-0.5-2.1-1.4-2.7c-0.9-0.5-2.4-0.8-4.3-0.8h-3.6V478.8z
			 M247,465.9h10.1c4.6,0,8,0.7,10,2c2.1,1.3,3.1,3.4,3.1,6.3c0,1.9-0.5,3.5-1.4,4.8c-0.9,1.2-2.1,2-3.6,2.2v0.2
			c2.1,0.5,3.5,1.3,4.5,2.6c0.9,1.3,1.4,2.9,1.4,5c0,3-1.1,5.3-3.2,6.9c-2.1,1.7-5,2.5-8.7,2.5H247V465.9z"/>
		<path fill="#007DAF" d="M293.8,480.4h2.2c2.2,0,3.8-0.4,4.8-1.1c1-0.7,1.6-1.9,1.6-3.4c0-1.5-0.5-2.6-1.6-3.3
			c-1.1-0.6-2.7-1-4.9-1h-2.1V480.4z M293.8,486v12.5h-6.9v-32.5h9.5c4.4,0,7.7,0.8,9.8,2.4c2.1,1.6,3.2,4.1,3.2,7.3
			c0,1.9-0.5,3.6-1.6,5.1c-1.1,1.5-2.5,2.7-4.5,3.5c4.9,7.3,8.1,12,9.6,14.2h-7.7l-7.8-12.5H293.8z"/>
		<path fill="#007DAF" d="M342.1,484.9c-2.2-7-3.4-11-3.7-11.9c-0.3-0.9-0.5-1.6-0.6-2.2c-0.5,1.9-1.9,6.6-4.2,14.1H342.1z
			 M346.2,498.5l-2.4-7.7h-11.9l-2.4,7.7h-7.4l11.5-32.7h8.4l11.5,32.7H346.2z"/>
		<path fill="#007DAF" d="M395.8,498.5h-8.8l-14.2-24.6h-0.2c0.3,4.3,0.4,7.4,0.4,9.3v15.3H367v-32.5h8.7l14.1,24.4h0.2
			c-0.2-4.2-0.3-7.2-0.3-9v-15.4h6.2V498.5z"/>
		<path fill="#007DAF" d="M427.1,471.2c-2.6,0-4.6,1-6,2.9c-1.4,1.9-2.1,4.7-2.1,8.1c0,7.3,2.7,10.9,8.2,10.9c2.3,0,5.1-0.6,8.3-1.7
			v5.8c-2.7,1.1-5.6,1.7-8.9,1.7c-4.7,0-8.4-1.4-10.9-4.3c-2.5-2.9-3.8-7-3.8-12.3c0-3.4,0.6-6.3,1.8-8.9c1.2-2.5,3-4.5,5.3-5.9
			c2.3-1.4,5-2,8.1-2c3.2,0,6.3,0.8,9.5,2.3l-2.2,5.6c-1.2-0.6-2.4-1.1-3.7-1.5C429.5,471.4,428.3,471.2,427.1,471.2"/>
		<polygon fill="#007DAF" points="470.4,498.5 451.6,498.5 451.6,465.9 470.4,465.9 470.4,471.6 458.5,471.6 458.5,478.7 
			469.5,478.7 469.5,484.4 458.5,484.4 458.5,492.8 470.4,492.8 		"/>
		<path fill="#007DAF" d="M525.8,471.2c-2.6,0-4.6,1-6,2.9c-1.4,1.9-2.1,4.7-2.1,8.1c0,7.3,2.7,10.9,8.2,10.9c2.3,0,5-0.6,8.3-1.7
			v5.8c-2.7,1.1-5.6,1.7-8.9,1.7c-4.7,0-8.4-1.4-10.9-4.3c-2.5-2.9-3.8-7-3.8-12.3c0-3.4,0.6-6.3,1.8-8.9c1.2-2.5,3-4.5,5.3-5.9
			c2.3-1.4,5-2,8.1-2c3.2,0,6.3,0.8,9.5,2.3l-2.2,5.6c-1.2-0.6-2.4-1.1-3.7-1.5C528.1,471.4,526.9,471.2,525.8,471.2"/>
		<polygon fill="#007DAF" points="569,498.5 550.3,498.5 550.3,465.9 569,465.9 569,471.6 557.2,471.6 557.2,478.7 568.2,478.7 
			568.2,484.4 557.2,484.4 557.2,492.8 569,492.8 		"/>
		<path fill="#007DAF" d="M613.9,498.5h-8.8L591,473.8h-0.2c0.3,4.3,0.4,7.4,0.4,9.3v15.3h-6.2v-32.5h8.7l14.1,24.4h0.2
			c-0.2-4.2-0.3-7.2-0.3-9v-15.4h6.2V498.5z"/>
		<polygon fill="#007DAF" points="643.9,498.5 637.1,498.5 637.1,471.7 628.2,471.7 628.2,465.9 652.8,465.9 652.8,471.7 
			643.9,471.7 		"/>
		<polygon fill="#007DAF" points="685.8,498.5 667.1,498.5 667.1,465.9 685.8,465.9 685.8,471.6 674,471.6 674,478.7 685,478.7 
			685,484.4 674,484.4 674,492.8 685.8,492.8 		"/>
		<path fill="#007DAF" d="M708.8,480.4h2.2c2.2,0,3.8-0.4,4.8-1.1c1-0.7,1.6-1.9,1.6-3.4c0-1.5-0.5-2.6-1.6-3.3
			c-1.1-0.6-2.7-1-4.9-1h-2.1V480.4z M708.8,486v12.5h-6.9v-32.5h9.5c4.4,0,7.7,0.8,9.8,2.4c2.1,1.6,3.2,4.1,3.2,7.3
			c0,1.9-0.5,3.6-1.6,5.1c-1.1,1.5-2.5,2.7-4.5,3.5c4.9,7.3,8.1,12,9.6,14.2h-7.7l-7.8-12.5H708.8z"/>
		<polygon fill="#007DAF" points="56.1,370.1 31.9,370.1 31.9,339.5 3.8,270.8 30.3,270.8 44,309.7 57.8,270.8 84.3,270.8 
			56.1,339.5 		"/>
		<path fill="#007DAF" d="M102.9,329.1h12.2l-6.1-30.3L102.9,329.1z M125.5,270.8l23.7,99.3h-25.9l-4.1-20.1H98.7l-4,20.1h-26
			l23.7-99.3H125.5z"/>
		<path fill="#007DAF" d="M181.7,349.2c16.6,0,19.6-9,19.6-26.2v-5.1c0-17.2-3.1-26.2-19.6-26.2h-6.4v57.6H181.7z M183,370.1h-31.8
			v-99.3H183c31.2,0,42.9,12.7,42.9,47.1v5.1C225.9,357.4,214.2,370.1,183,370.1"/>
		<polygon fill="#007DAF" points="271.8,370.1 248.2,270.8 274,270.8 288.4,342.1 302.7,270.8 328.6,270.8 305,370.1 		"/>
		<path fill="#007DAF" d="M349.8,329.1H362l-6.1-30.3L349.8,329.1z M372.5,270.8l23.7,99.3h-25.9l-4.1-20.1h-20.6l-3.9,20.1h-26
			l23.7-99.3H372.5z"/>
		<path fill="#007DAF" d="M396.8,300.9v-1.4c0-18.5,12.4-30.6,36.3-30.6c25.1,0,36.3,10.7,36.3,34.8v2.7h-24.2
			c0-11.2-3.2-16.6-12.1-16.6h-1.3c-7,0-10.4,4-10.4,9v0.5c0,6.1,2,9.2,15.4,10.9c21.6,2.9,33.2,9.8,33.2,29.3v1.4
			c0,19.5-12.6,30.8-36.9,30.8c-24.2,0-36.9-10.1-36.9-35v-1.1h24.2c0,10.9,3.8,15.3,12.1,15.3h1.3c8.3,0,11.7-4.5,11.7-9.3v-0.5
			c0-5.7-2.7-9.2-16-11C407.8,327.3,396.8,320.4,396.8,300.9"/>
		<polygon fill="#007DAF" points="549.7,270.8 549.7,370.1 525.5,370.1 525.5,329.9 501.3,329.9 501.3,370.1 477.1,370.1 
			477.1,270.8 501.3,270.8 501.3,309 525.5,309 525.5,270.8 		"/>
		<polygon fill="#007DAF" points="621.8,270.8 621.8,291.6 583.6,291.6 583.6,309 615.5,309 615.5,329.9 583.6,329.9 583.6,349.2 
			621.8,349.2 621.8,370.1 559.4,370.1 559.4,270.8 		"/>
		<polygon fill="#007DAF" points="692.4,370.1 667.5,370.1 653.2,312.8 653.8,331.9 653.8,370.1 629.6,370.1 629.6,270.8 
			665.7,270.8 679.9,328.1 694.2,270.8 730.3,270.8 730.3,370.1 706,370.1 706,331.9 706.7,312.8 		"/>
		<path fill="#334E7B" d="M612,20.9c0,0-8.9,0.7-13.5,0.7c-4.6,0-13.2-0.7-13.2-0.7v17.7l11.3,83.3l2.3-0.7L612,20.9z"/>
		<path fill="#334E7B" d="M633.4,120.1l12-85.3c0,0-11.1,1-16.7,0.9c-4.2-0.1-12.5-0.7-12.5-0.7l12.5,86.7L633.4,120.1z"/>
		<path fill="#334E7B" d="M748.7,10.7l-13.5-1l0,19l8.5,56c-4.4,2.8-17.8,10.3-25.3,13.6l8.5-63.7l0.5-12.8
			c-2.3,0.2-10.9,0.9-12.7,0.9c-3.9,0-12.7-0.7-12.7-0.7v15l9.6,64.5c-8.4,3.6-14.2,6.2-26.1,10.4l2.7-20.9l9.6-70.5V0
			c0,0-10.5,0.7-15.3,0.7C677.9,0.7,668,0,668,0s14.9,112.9,14.9,112.9c-41.8,15.3-84.5,24.2-84.5,24.2l5.6,38.8
			c0,0,34.4,5.5,64.5,7.9c31,2.5,61.4,1.6,61.4,1.6v1.8l-39.2,6.7l-27.6,52.3v15.7l72.1-75.2l2.7-21.5c0,0-28.2-2.9-53.9-7.6
			c-25.7-4.7-55.8-13-55.8-13l0.1-2.4l60.8,0l60.9-17.6l13.8-88.3V10C763.8,10,753.6,10.7,748.7,10.7"/>
		<path fill="#334E7B" d="M653.6,106l4.1-1.4l1.1-10.2l7.4-59.4l0.1-4.2V15.4c0,0-7.4,0.7-11.3,0.7c-3.9,0-10.7-0.7-10.7-0.7v19.7
			L653.6,106z"/>
		<path fill="#334E7B" d="M75.4,150.9l0.8,52.4H36.4v-52.4C39.3,150.9,73,151,75.4,150.9 M7.1,112.7L0,150.9h28.3v1.7l-20,6.6v78.8
			h96.5V125.5c0,0-24.3-1-48.6-4.1C32.1,118.1,7.9,112.7,7.1,112.7"/>
		<path fill="#334E7B" d="M219.3,115.2c0,0-7.5,33.3-7.9,34.8c0,0,12.5,0,14,0l-6.6,48.7l-45.8,14l-0.6-1.2l20.6-16.3l11-69.8
			c0,0-9.4-2.2-14.8-4c-7.3-2.5-14.6-6.3-14.6-6.3l-6.4,92.9c-0.1,1.9-0.2,2.8-0.2,2.8h-1.5c0,0-11.5-13.5-11.5-39
			c0-25.5,5.1-46.4,5.1-46.4s-10.5-1.8-18.5-3.9c-7.9-2-18.5-6.4-18.5-6.4l-6.6,36.9l0.9,0.2l3.5-1.4h24.8l0,1.8l-22.1,5
			c0,0,0.9,7,1.1,8.9c3.4,26.3,18.8,81.3,20.6,82.1l83.7-20.8c0.9-1.6,11.6-16.1,18.9-44.8c5.9-23.3,11-57.6,11-57.6
			s-9.5-0.9-18.2-3C232,120.3,219.3,115.2,219.3,115.2"/>
		<path fill="#334E7B" d="M272.6,115.2c0,0-6.1,33.7-6.5,35.8h21.8l9.5,87.2h19.4l2.1-112.7c0,0-9.2-0.6-23.4-3.7
			C281.4,118.6,272.6,115.2,272.6,115.2"/>
		<path fill="#334E7B" d="M366.6,115.2c0,0-5.1,33.7-5.3,35.7l75.7,0.1v1.7l-21.8,4.9l10.3,80.6H445l1.2-87l18.3-4.1l1.4-21.6
			c0,0-25.7-0.3-52.2-3.2C387.2,119.4,366.6,115.2,366.6,115.2"/>
		<path fill="#334E7B" d="M480.6,115.7c0,0-6.4,33.2-6.7,35.2l22,0l11,42.8h16.3l1.9-67.5c0,0-11.1-1.5-23.2-4.3
			C490.4,119.2,480.6,115.7,480.6,115.7"/>
	</g>
</g>
<g id="Layer_3">
</g>
</svg>
