<svg xmlns="http://www.w3.org/2000/svg" width="1800" height="1200" viewBox="0 0 1800 1200" role="img" aria-label="Cinematic abstract city and landscape placeholder">
  <defs>
    <linearGradient id="sky" x1="0" x2="1" y1="0" y2="1">
      <stop offset="0" stop-color="#30362f"/>
      <stop offset="0.45" stop-color="#11110f"/>
      <stop offset="1" stop-color="#5f6e74"/>
    </linearGradient>
    <radialGradient id="warm" cx="35%" cy="28%" r="45%">
      <stop offset="0" stop-color="#c58b5b" stop-opacity="0.56"/>
      <stop offset="1" stop-color="#c58b5b" stop-opacity="0"/>
    </radialGradient>
  </defs>
  <rect width="1800" height="1200" fill="url(#sky)"/>
  <rect width="1800" height="1200" fill="url(#warm)"/>
  <path d="M0 790 C280 700 420 830 650 740 C900 642 1100 720 1300 650 C1510 575 1640 640 1800 590 L1800 1200 L0 1200 Z" fill="#1d211e" opacity="0.88"/>
  <path d="M210 600 L330 520 L470 640 L610 495 L760 650 L925 540 L1130 680 L1310 530 L1540 690 L1800 580 L1800 1200 L0 1200 L0 720 Z" fill="#0f100e" opacity="0.72"/>
  <g opacity="0.18" fill="#fffaf2">
    <rect x="1030" y="280" width="2" height="520"/>
    <rect x="1090" y="230" width="2" height="540"/>
    <rect x="1150" y="320" width="2" height="520"/>
    <rect x="1210" y="250" width="2" height="560"/>
    <rect x="1270" y="300" width="2" height="510"/>
  </g>
</svg>
