<svg width="145" height="18" viewBox="0 0 145 18" fill="none" xmlns="http://www.w3.org/2000/svg">
<path d="M2.63555 13H1.09149V3.58923H2.63555V13ZM6.21143 13V3.58923H7.87528L12.5607 10.6573V3.58923H14.0915V13H12.4409L7.72886 5.95856V13H6.21143ZM20.9496 4.84045C20.7455 4.84045 20.537 4.8582 20.324 4.89369C20.111 4.92919 19.9158 4.99574 19.7383 5.09336C19.5608 5.18209 19.4144 5.31077 19.2991 5.47937C19.1837 5.6391 19.126 5.8432 19.126 6.09167C19.126 6.46437 19.2502 6.74834 19.4987 6.94356C19.7472 7.12992 20.0445 7.2719 20.3905 7.36951C20.639 7.4405 20.8875 7.50706 21.1359 7.56917C21.3933 7.63129 21.6285 7.68453 21.8414 7.7289C22.2141 7.80877 22.5646 7.90638 22.893 8.02174C23.2302 8.1371 23.523 8.2924 23.7715 8.48762C24.02 8.67397 24.2152 8.91357 24.3572 9.20641C24.508 9.49037 24.5835 9.84533 24.5835 10.2713C24.5835 10.7771 24.4903 11.2075 24.3039 11.5624C24.1265 11.9174 23.8824 12.2102 23.5718 12.4409C23.2612 12.6717 22.8974 12.8403 22.4803 12.9468C22.0633 13.0532 21.6151 13.1065 21.1359 13.1065C20.6479 13.1065 20.182 13.0577 19.7383 12.9601C19.3035 12.8536 18.913 12.6894 18.567 12.4676C18.2209 12.2368 17.9325 11.944 17.7017 11.589C17.471 11.2341 17.3246 10.8081 17.2625 10.3112H18.8598C18.9308 10.5774 19.0461 10.7993 19.2059 10.9768C19.3656 11.1542 19.5475 11.2962 19.7516 11.4027C19.9646 11.5092 20.1909 11.5846 20.4305 11.629C20.6701 11.6734 20.9052 11.6955 21.1359 11.6955C21.3844 11.6955 21.624 11.6778 21.8547 11.6423C22.0855 11.5979 22.2851 11.5269 22.4537 11.4293C22.6223 11.3317 22.7599 11.203 22.8664 11.0433C22.9728 10.8836 23.0261 10.675 23.0261 10.4177C23.0261 10.0627 22.9329 9.8054 22.7466 9.64567C22.5602 9.47706 22.3117 9.35283 22.0012 9.27296C21.5752 9.14873 21.1359 9.04224 20.6834 8.9535C20.2397 8.85589 19.8182 8.73165 19.4188 8.5808C19.1526 8.48318 18.9086 8.36782 18.6868 8.23472C18.4649 8.10161 18.2697 7.94188 18.1011 7.75553C17.9325 7.56917 17.7994 7.35176 17.7017 7.10329C17.613 6.84595 17.5686 6.54867 17.5686 6.21147C17.5686 5.69678 17.6663 5.2664 17.8615 4.92031C18.0567 4.56536 18.3096 4.28139 18.6202 4.06842C18.9397 3.85545 19.2991 3.70459 19.6984 3.61585C20.0977 3.51824 20.5059 3.46943 20.923 3.46943C21.3667 3.46943 21.7882 3.52267 22.1875 3.62916C22.5868 3.72677 22.9418 3.88207 23.2524 4.09504C23.563 4.30801 23.8114 4.58311 23.9978 4.92031C24.193 5.25752 24.3084 5.66572 24.3439 6.14491H22.8264C22.7909 5.90532 22.7155 5.70565 22.6001 5.54592C22.4937 5.38619 22.3561 5.25752 22.1875 5.15991C22.0278 5.05342 21.8414 4.97799 21.6285 4.93363C21.4155 4.88038 21.1892 4.84932 20.9496 4.84045ZM27.7733 3.58923H31.2208C31.7621 3.58923 32.2458 3.65135 32.6717 3.77558C33.1065 3.89094 33.4748 4.07729 33.7765 4.33464C34.0871 4.59198 34.3223 4.92475 34.482 5.33295C34.6506 5.73228 34.7349 6.2159 34.7349 6.78383C34.7349 7.30739 34.6462 7.77327 34.4687 8.18147C34.3001 8.58967 34.056 8.93132 33.7366 9.20641C33.426 9.4815 33.0533 9.69004 32.6185 9.83202C32.1837 9.974 31.7 10.045 31.1676 10.045H29.3174V13H27.7733V3.58923ZM31.0877 8.68728C31.6823 8.68728 32.1748 8.54087 32.5652 8.24803C32.9646 7.94631 33.1731 7.48043 33.1908 6.85039C33.1908 6.18485 33.0178 5.70565 32.6717 5.41282C32.3345 5.11998 31.8376 4.97356 31.1809 4.97356H29.3174V8.68728H31.0877ZM39.3509 13H37.8068V3.58923H39.3509V13ZM44.4708 9.55249V13H42.9268V3.58923H46.5873C47.0753 3.58923 47.5323 3.63804 47.9583 3.73565C48.3842 3.83326 48.7525 3.99743 49.0631 4.22815C49.3825 4.45887 49.631 4.76502 49.8085 5.1466C49.9948 5.52818 50.088 5.99849 50.088 6.55755C50.088 6.93913 50.0303 7.28965 49.915 7.60911C49.8085 7.91969 49.6621 8.19478 49.4757 8.43438C49.2894 8.6651 49.072 8.86033 48.8235 9.02006C48.575 9.17091 48.3088 9.28184 48.0248 9.35283L50.0614 13H48.3443C48.0337 12.4232 47.7187 11.8508 47.3992 11.2829C47.0886 10.7061 46.7736 10.1293 46.4541 9.55249H44.4708ZM46.3743 8.20809C46.676 8.20809 46.96 8.18147 47.2262 8.12823C47.4924 8.07499 47.7231 7.98625 47.9183 7.86201C48.1136 7.73778 48.2644 7.56917 48.3709 7.3562C48.4863 7.13435 48.544 6.85482 48.544 6.51762C48.544 6.2159 48.4951 5.96743 48.3975 5.77221C48.3088 5.57698 48.1757 5.42169 47.9982 5.30633C47.8207 5.18209 47.6078 5.09779 47.3593 5.05342C47.1108 5.00018 46.8357 4.97356 46.534 4.97356H44.4708V8.20809H46.3743ZM53.2073 3.58923H59.7429V4.97356H54.7513V7.64904H59.1705V9.04668H54.7513V11.629H59.7429V13H53.2073V3.58923Z" fill="white"/>
<path d="M85.0049 4.85376C84.5079 4.85376 84.0776 4.94694 83.7137 5.13329C83.3588 5.31964 83.0659 5.56811 82.8352 5.8787C82.6045 6.18928 82.4314 6.55311 82.3161 6.97019C82.2096 7.37838 82.1564 7.80877 82.1564 8.26134C82.1564 8.72278 82.214 9.16204 82.3294 9.57911C82.4448 9.99618 82.6178 10.3645 82.8485 10.6839C83.0881 10.9945 83.3898 11.243 83.7537 11.4293C84.1175 11.6157 84.5479 11.7088 85.0448 11.7088C85.6571 11.7088 86.1674 11.5757 86.5756 11.3095C86.9926 11.0433 87.2544 10.6839 87.3609 10.2313H88.905C88.834 10.6839 88.6831 11.0877 88.4524 11.4426C88.2305 11.7976 87.951 12.0993 87.6138 12.3478C87.2766 12.5874 86.8861 12.7737 86.4425 12.9068C85.9988 13.0311 85.524 13.0932 85.0182 13.0932C84.2817 13.0932 83.6339 12.9734 83.0748 12.7338C82.5246 12.4942 82.0632 12.1614 81.6905 11.7355C81.3178 11.3095 81.0382 10.8037 80.8519 10.218C80.6655 9.63236 80.5724 8.989 80.5724 8.28796C80.5724 7.60467 80.6655 6.97019 80.8519 6.38451C81.0471 5.78996 81.3311 5.27971 81.7038 4.85376C82.0765 4.41894 82.5379 4.08173 83.0881 3.84214C83.6472 3.59367 84.295 3.46943 85.0315 3.46943C86.0697 3.46943 86.9261 3.71346 87.6005 4.20153C88.2749 4.68959 88.6831 5.40838 88.8251 6.35789H87.3077C87.1923 5.89644 86.935 5.53261 86.5356 5.2664C86.1363 4.99131 85.6261 4.85376 85.0049 4.85376ZM98.0286 7.67566V3.58923H99.5726V13H98.0286V9.05999H93.423V13H91.8789V3.58923H93.423V7.67566H98.0286ZM109.47 13L108.778 11.0965H104.505L103.8 13H102.122L105.69 3.58923H107.606L111.16 13H109.47ZM108.299 9.71222L106.648 5.10667L104.984 9.71222H108.299ZM113.714 13V3.58923H115.378L120.063 10.6573V3.58923H121.594V13H119.943L115.231 5.95856V13H113.714ZM129.038 4.85376C128.541 4.86263 128.115 4.96025 127.76 5.1466C127.405 5.33295 127.112 5.58142 126.881 5.89201C126.659 6.20259 126.495 6.56642 126.389 6.9835C126.282 7.3917 126.229 7.82652 126.229 8.28796C126.229 8.7494 126.282 9.18866 126.389 9.60573C126.504 10.0139 126.677 10.3778 126.908 10.6972C127.148 11.0078 127.449 11.2563 127.813 11.4426C128.177 11.6201 128.607 11.7088 129.104 11.7088C129.912 11.7088 130.537 11.5003 130.981 11.0832C131.434 10.6573 131.669 10.1071 131.687 9.43269H128.931V8.12823H133.164C133.164 8.46544 133.155 8.80708 133.137 9.15316C133.129 9.49037 133.08 9.84533 132.991 10.218C132.884 10.6174 132.729 10.9945 132.525 11.3495C132.321 11.6955 132.059 11.9972 131.74 12.2546C131.42 12.5119 131.039 12.716 130.595 12.8669C130.16 13.0177 129.659 13.0932 129.091 13.0932C128.354 13.0932 127.707 12.9778 127.148 12.7471C126.597 12.5075 126.136 12.1747 125.763 11.7488C125.39 11.3228 125.111 10.817 124.925 10.2313C124.738 9.64567 124.645 9.00674 124.645 8.31458C124.645 7.61354 124.738 6.96575 124.925 6.3712C125.111 5.77665 125.386 5.2664 125.75 4.84045C126.123 4.40563 126.584 4.06842 127.134 3.82882C127.693 3.58923 128.341 3.46943 129.078 3.46943C129.592 3.46943 130.067 3.53599 130.502 3.66909C130.946 3.79333 131.336 3.97968 131.673 4.22815C132.01 4.46775 132.29 4.76946 132.512 5.13329C132.734 5.48824 132.88 5.89644 132.951 6.35789H131.394C131.278 5.88757 131.008 5.5193 130.582 5.25309C130.165 4.98687 129.65 4.85376 129.038 4.85376ZM136.212 3.58923H142.747V4.97356H137.756V7.64904H142.175V9.04668H137.756V11.629H142.747V13H136.212V3.58923Z" fill="white"/>
<path fill-rule="evenodd" clip-rule="evenodd" d="M68.4506 2.94187C68.1747 2.64215 67.8848 2.32718 67.5789 2.00088C67.5789 2.00088 63.8837 2.0009 63.4793 2.00088C63.0749 2.00086 62.9181 2.49136 63.1833 2.88389C63.4484 3.27642 67.7375 7.49495 67.7375 7.49495C67.7375 7.49495 63.567 11.8089 63.1833 12.2472C62.7995 12.6854 63.0768 13 63.4793 13C63.8819 13 67.5789 13 67.5789 13L70.3107 10.2004L73.066 13C73.066 13 77.1435 13 77.4836 13C77.8237 13 77.7651 12.6372 77.4836 12.2472C77.2629 11.9413 73.5395 8.20461 72.2462 8.13015C71.1294 8.02138 70.1455 8.62579 67.191 11.9413H64.8911C64.8911 11.9413 68.6638 7.99371 68.8306 7.77726C68.9973 7.56082 68.9481 7.33738 68.8306 7.14207C68.713 6.94675 64.8911 3.07209 64.8911 3.07209H67.191C70.0749 6.2632 70.9262 6.90079 72.2462 6.85976C73.5663 6.81872 75.0745 5.31014 77.4836 2.74273C77.7907 2.41552 77.8237 1.97647 77.1193 2.00088H73.066L70.2937 4.84886L70.6926 5.19159L71.0844 5.47681L73.4987 3.07209H75.7075C73.9434 5.21934 73.2035 5.78383 72.2462 5.84814C71.2066 5.93577 70.0707 4.70176 68.4506 2.94187ZM73.4987 11.9413L71.1077 9.51818C71.2886 9.26581 71.9558 9.11824 72.2462 9.11824C72.6809 9.11824 74.2195 10.0516 75.7075 11.9413H73.4987Z" fill="#FF6F61"/>
<path d="M71.0844 5.47681C70.8332 5.31376 70.5709 5.10173 70.2937 4.84886L70.6926 5.19159L71.0844 5.47681Z" fill="#FF6F61"/>
</svg>
